<svg width="63" height="63" viewBox="0 0 63 63" fill="none" xmlns="http://www.w3.org/2000/svg">
<g id="vuesax/bulk/direct-send">
<g id="direct-send">
<path id="Vector" d="M38.1416 9.10863L32.8916 3.85863C32.8654 3.83238 32.8391 3.83238 32.8391 3.80613C32.6816 3.64863 32.4716 3.51738 32.2616 3.41238C32.2354 3.41238 32.2354 3.41238 32.2091 3.38613C31.9991 3.30738 31.7891 3.28113 31.5791 3.25488C31.5004 3.25488 31.4479 3.25488 31.3691 3.25488C31.2116 3.25488 31.0541 3.30738 30.8966 3.35988C30.8179 3.38613 30.7654 3.41238 30.7129 3.43863C30.5029 3.54363 30.2929 3.64863 30.1354 3.83238L24.8854 9.08238C24.1241 9.84363 24.1241 11.1036 24.8854 11.8649C25.6466 12.6261 26.9066 12.6261 27.6679 11.8649L29.5579 9.97488V23.6249C29.5579 24.7011 30.4504 25.5936 31.5266 25.5936C32.6029 25.5936 33.4691 24.7011 33.4691 23.6249V10.0011L35.3591 11.8911C35.7529 12.2849 36.2516 12.4686 36.7504 12.4686C37.2491 12.4686 37.7479 12.2849 38.1416 11.8911C38.9029 11.1299 38.9029 9.86988 38.1416 9.10863Z" fill="white"/>
<path id="Vector_2" opacity="0.4" d="M42.4988 15.75H20.5013C10.9462 15.75 5.25 21.4463 5.25 31.0013V42.4725C5.25 52.0538 10.9462 57.75 20.5013 57.75H42.4725C52.0275 57.75 57.7238 52.0538 57.7238 42.4988V31.0275C57.75 21.4462 52.0538 15.75 42.4988 15.75Z" fill="white"/>
<path id="Vector_3" d="M55.9125 32.1038H46.7775C44.205 32.1038 41.9212 33.5213 40.7663 35.8313L38.5612 40.1888C38.0362 41.2388 36.9862 41.895 35.8312 41.895H27.2213C26.4075 41.895 25.2525 41.7113 24.4912 40.1888L22.2862 35.8575C21.1312 33.5738 18.8212 32.13 16.275 32.13H7.0875C6.06375 32.13 5.25 32.9438 5.25 33.9675V42.525C5.25 52.0538 10.9725 57.75 20.5275 57.75H42.525C51.5288 57.75 57.0675 52.815 57.75 44.0475V33.9413C57.75 32.9438 56.9362 32.1038 55.9125 32.1038Z" fill="white"/>
</g>
</g>
</svg>
