<svg width="75" height="75" viewBox="0 0 75 75" fill="none" xmlns="http://www.w3.org/2000/svg">
<g id="Layer_1" clip-path="url(#clip0_201_1255)">
<g id="Calendar">
<path id="Vector" d="M68.7529 7.49755H62.505V4.99837C62.505 2.24191 60.2631 0 57.5066 0C54.7501 0 52.5082 2.24191 52.5082 4.99837V7.49755H42.5115V4.99837C42.5115 2.24191 40.2696 0 37.5131 0C34.7567 0 32.5148 2.24191 32.5148 4.99837V7.49755H22.518V4.99837C22.518 2.24191 20.2761 0 17.5197 0C14.7632 0 12.5213 2.24191 12.5213 4.99837V7.49755H6.27335C2.8186 7.49755 0.0253906 10.2908 0.0253906 13.7455V63.7414C0.0253906 67.1962 2.8186 69.9894 6.27335 69.9894H41.2742C41.9602 69.9894 42.5238 69.4258 42.5238 68.7398C42.5238 68.0537 41.9602 67.4902 41.2742 67.4902H6.24885C4.17844 67.4902 2.50007 65.8118 2.50007 63.7414V24.9918H72.5017V46.2471C72.5017 46.9332 73.0652 47.4967 73.7513 47.4967C74.4373 47.4967 75.0009 46.9332 75.0009 46.2471V13.7455C75.0009 10.2908 72.2077 7.49755 68.7529 7.49755ZM55.0074 4.99837C55.0074 3.61401 56.1222 2.49918 57.5066 2.49918C58.891 2.49918 60.0058 3.61401 60.0058 4.99837V12.4959C60.0058 13.8803 58.891 14.9951 57.5066 14.9951C56.1222 14.9951 55.0074 13.8803 55.0074 12.4959V4.99837ZM35.0017 4.99837C35.0017 3.61401 36.1165 2.49918 37.5009 2.49918C38.8852 2.49918 40.0001 3.61401 40.0001 4.99837V12.4959C40.0001 13.8803 38.8852 14.9951 37.5009 14.9951C36.1165 14.9951 35.0017 13.8803 35.0017 12.4959V4.99837ZM14.996 4.99837C14.996 3.61401 16.1108 2.49918 17.4952 2.49918C18.8795 2.49918 19.9944 3.61401 19.9944 4.99837V12.4959C19.9944 13.8803 18.8795 14.9951 17.4952 14.9951C16.1108 14.9951 14.996 13.8803 14.996 12.4959V4.99837ZM72.4894 22.4926H2.50007V13.7455C2.50007 11.6751 4.17844 9.99673 6.24885 9.99673H12.4968V12.4959C12.4968 15.2524 14.7387 17.4943 17.4952 17.4943C20.2516 17.4943 22.4935 15.2524 22.4935 12.4959V9.99673H32.4903V12.4959C32.4903 15.2524 34.7322 17.4943 37.4886 17.4943C40.2451 17.4943 42.487 15.2524 42.487 12.4959V9.99673H52.4837V12.4959C52.4837 15.2524 54.7256 17.4943 57.4821 17.4943C60.2386 17.4943 62.4805 15.2524 62.4805 12.4959V9.99673H68.7284C70.7988 9.99673 72.4772 11.6751 72.4772 13.7455V22.4926H72.4894Z" fill="#203746"/>
<path id="Vector_2" d="M35.0026 33.7511C35.0026 32.3668 33.8878 31.252 32.5034 31.252H27.505C26.1207 31.252 25.0059 32.3668 25.0059 33.7511V37.4999C25.0059 38.8843 26.1207 39.9991 27.505 39.9991H32.5034C33.8878 39.9991 35.0026 38.8843 35.0026 37.4999V33.7511ZM27.505 37.4999V33.7511H32.5034V37.4999H27.505Z" fill="#203746"/>
<path id="Vector_3" d="M20.0065 33.7511C20.0065 32.3668 18.8917 31.252 17.5073 31.252H12.5089C11.1246 31.252 10.0098 32.3668 10.0098 33.7511V37.4999C10.0098 38.8843 11.1246 39.9991 12.5089 39.9991H17.5073C18.8917 39.9991 20.0065 38.8843 20.0065 37.4999V33.7511ZM12.5089 37.4999V33.7511H17.5073V37.4999H12.5089Z" fill="#203746"/>
<path id="Vector_4" d="M62.5054 39.9991C63.8897 39.9991 65.0045 38.8843 65.0045 37.4999V33.7511C65.0045 32.3668 63.8897 31.252 62.5054 31.252H57.507C56.1226 31.252 55.0078 32.3668 55.0078 33.7511V37.4999C55.0078 38.8843 56.1226 39.9991 57.507 39.9991H62.5054ZM57.507 33.7511H62.5054V37.4999H57.507V33.7511Z" fill="#203746"/>
<path id="Vector_5" d="M35.0026 44.9972C35.0026 43.6129 33.8878 42.498 32.5034 42.498H27.505C26.1207 42.498 25.0059 43.6129 25.0059 44.9972V48.746C25.0059 50.1304 26.1207 51.2452 27.505 51.2452H32.5034C33.8878 51.2452 35.0026 50.1304 35.0026 48.746V44.9972ZM27.505 48.746V44.9972H32.5034V48.746H27.505Z" fill="#203746"/>
<path id="Vector_6" d="M20.0065 44.9972C20.0065 43.6129 18.8917 42.498 17.5073 42.498H12.5089C11.1246 42.498 10.0098 43.6129 10.0098 44.9972V48.746C10.0098 50.1304 11.1246 51.2452 12.5089 51.2452H17.5073C18.8917 51.2452 20.0065 50.1304 20.0065 48.746V44.9972ZM12.5089 48.746V44.9972H17.5073V48.746H12.5089Z" fill="#203746"/>
<path id="Vector_7" d="M32.5034 53.7451H27.505C26.1207 53.7451 25.0059 54.86 25.0059 56.2443V59.9931C25.0059 61.3774 26.1207 62.4923 27.505 62.4923H32.5034C33.8878 62.4923 35.0026 61.3774 35.0026 59.9931V56.2443C35.0026 54.86 33.8878 53.7451 32.5034 53.7451ZM27.505 59.9931V56.2443H32.5034V59.9931H27.505Z" fill="#203746"/>
<path id="Vector_8" d="M42.4992 39.9991H47.4975C48.8819 39.9991 49.9967 38.8843 49.9967 37.4999V33.7511C49.9967 32.3668 48.8819 31.252 47.4975 31.252H42.4992C41.1148 31.252 40 32.3668 40 33.7511V37.4999C40 38.8843 41.1148 39.9991 42.4992 39.9991ZM42.4992 33.7511H47.4975V37.4999H42.4992V33.7511Z" fill="#203746"/>
<path id="Vector_9" d="M40 48.746C40 50.1304 41.1148 51.2452 42.4992 51.2452C43.1852 51.2452 43.7488 50.6817 43.7488 49.9956C43.7488 49.3096 43.1852 48.746 42.4992 48.746V44.9972H47.4975C48.1836 44.9972 48.7471 44.4337 48.7471 43.7476C48.7471 43.0616 48.1836 42.498 47.4975 42.498H42.4992C41.1148 42.498 40 43.6129 40 44.9972V48.746Z" fill="#203746"/>
<path id="Vector_10" d="M17.4956 53.7451H12.4972C11.1129 53.7451 9.99805 54.86 9.99805 56.2443V59.9931C9.99805 61.3774 11.1129 62.4923 12.4972 62.4923H17.4956C18.8799 62.4923 19.9948 61.3774 19.9948 59.9931V56.2443C19.9948 54.86 18.8799 53.7451 17.4956 53.7451ZM12.4972 59.9931V56.2443H17.4956V59.9931H12.4972Z" fill="#203746"/>
<path id="Vector_11" d="M58.7564 42.498C49.7765 42.498 42.5117 49.7751 42.5117 58.7427C42.5117 67.7104 49.7888 74.9874 58.7564 74.9874C67.7241 74.9874 75.0011 67.7104 75.0011 58.7427C75.0011 49.7751 67.7241 42.498 58.7564 42.498ZM58.7564 72.5005C51.1609 72.5005 45.0109 66.3505 45.0109 58.755C45.0109 51.1594 51.1609 45.0095 58.7564 45.0095C66.352 45.0095 72.5019 51.1594 72.5019 58.755C72.5019 66.3505 66.3397 72.5005 58.7564 72.5005Z" fill="#203746"/>
<path id="Vector_12" d="M65.972 53.5122L56.2448 63.2394L51.8223 58.8169C51.32 58.3391 50.5359 58.3513 50.0581 58.8414C49.5926 59.3314 49.5926 60.091 50.0581 60.581L55.3628 65.8856C55.8528 66.3757 56.6369 66.3757 57.1269 65.8856L67.7362 55.2764C68.214 54.7741 68.2017 53.99 67.7117 53.5122C67.2216 53.0467 66.4621 53.0467 65.972 53.5122Z" fill="#203746"/>
</g>
</g>
<defs>
<clipPath id="clip0_201_1255">
<rect width="75" height="75" fill="white"/>
</clipPath>
</defs>
</svg>
