<svg width="359" height="112" viewBox="0 0 359 112" fill="none" xmlns="http://www.w3.org/2000/svg">
<g clip-path="url(#clip0_107_113)">
<path d="M293.66 84.1138C290.295 84.226 286.991 83.8378 283.868 82.9322C276.838 80.8793 271.601 76.4545 269.134 70.4599C266.666 64.4653 267.27 57.6341 270.825 51.2341C274.362 44.8686 280.4 39.6761 287.837 36.6141C295.273 33.5521 303.219 32.9915 310.206 35.0357C317.237 37.0885 322.474 41.5133 324.941 47.5079C327.408 53.5025 326.805 60.3338 323.25 66.7338C319.713 73.0993 313.674 78.2917 306.238 81.3537C302.114 83.0443 297.844 83.9758 293.651 84.1225M300.406 35.1133C296.386 35.2513 292.271 36.1483 288.303 37.7785C281.16 40.7198 275.354 45.6966 271.972 51.7947C268.607 57.8583 268.029 64.3101 270.35 69.951C272.671 75.6006 277.623 79.7753 284.283 81.716C290.986 83.6653 298.612 83.1219 305.755 80.1893C312.898 77.2481 318.704 72.2712 322.086 66.1731C325.45 60.1095 326.028 53.6578 323.708 48.0168C321.387 42.3758 316.435 38.1925 309.775 36.2518C306.79 35.3807 303.624 35.0098 300.406 35.1219" fill="#ffffff"/>
<path d="M295.299 48.2506H295.644C298.336 48.1471 300.449 45.8872 300.354 43.1875C300.449 45.8786 302.709 47.9918 305.401 47.8969C302.709 47.9918 300.596 50.2517 300.691 52.9428C300.596 50.2517 298.336 48.1384 295.644 48.2333H295.299V48.2506Z" fill="#ffffff"/>
<path d="M286.707 74.1607C283.946 74.2556 281.867 73.3672 280.53 71.53C279.512 70.1586 278.96 68.3472 278.882 66.1478C278.856 65.4233 278.882 64.7677 278.951 64.1381C279.089 63.0685 279.279 62.1888 279.555 61.4297C279.667 61.1192 279.788 60.9553 279.943 60.9295C280.047 60.9295 280.107 60.964 280.15 61.0157C280.228 61.1106 280.236 61.2658 280.193 61.5591C279.831 64.0173 279.71 65.1559 279.719 65.3801C279.762 66.7171 280.262 67.9591 281.203 69.0545C282.479 70.5122 284.291 71.2109 286.586 71.1246C288.656 71.0556 290.856 70.4863 293.142 69.4513C294.98 68.6146 296.671 67.5623 298.18 66.3375C299.88 64.9575 300.121 64.3623 300.113 64.1295C300.061 62.6545 299.578 61.0588 298.663 59.3941C298.482 59.0319 298.387 58.7731 298.379 58.5834C298.37 58.3332 298.707 57.1084 298.845 56.5909C298.922 56.2373 299.078 56.151 299.19 56.151C299.388 56.151 299.535 56.3494 299.699 56.6685C300.121 57.4879 300.743 58.0658 301.597 58.4281C303.296 55.5041 304.28 53.9084 304.78 53.2788C306.41 51.1397 308.101 50.027 309.809 49.9666C311.267 49.9149 312.604 50.3979 313.786 51.3898C314.847 52.261 315.374 53.0718 315.4 53.8481C315.417 54.4518 315.313 55.1591 315.072 55.944C314.83 56.7462 314.546 57.3672 314.226 57.7812C313.631 58.5489 312.604 59.351 311.164 60.1704C309.05 61.3866 306.842 62.0421 304.599 62.1197C303.512 62.1542 302.347 61.9472 301.148 61.4901C301.226 64.2933 300.881 66.1392 300.104 67.1138C298.931 68.5715 297.188 70.0033 294.919 71.3747C292.055 73.1257 289.295 74.0572 286.715 74.1435M302.822 58.8507C303.572 59.0578 304.349 59.1526 305.116 59.1268C306.488 59.0836 307.98 58.7645 309.533 58.2038C310.801 57.7295 311.897 57.1861 312.898 56.565C314.037 55.8405 314.14 55.6335 314.157 55.599C314.157 55.4869 314.002 55.0987 312.674 54.1499C311.509 53.3133 310.353 52.9079 309.24 52.9424C307.083 53.02 304.927 55.0038 302.83 58.8507" fill="#ffffff"/>
<path d="M323.362 84.8652C319.575 87.7634 315.313 90.2216 310.681 92.1278C299.5 96.7251 287.578 97.579 277.088 94.517C266.675 91.4809 258.945 84.9515 255.313 76.1364C252.259 68.71 252.423 60.3865 255.701 52.2787C255.158 52.0545 254.64 51.7871 254.149 51.4766C250.646 60.0588 250.448 68.8911 253.709 76.8006C257.539 86.1159 265.674 93.0076 276.604 96.1903C281.444 97.6049 286.577 98.2086 291.805 98.0275C298.301 97.8032 304.944 96.3628 311.345 93.7321C316.159 91.7483 320.593 89.1865 324.536 86.159C324.104 85.7709 323.707 85.3396 323.362 84.8652Z" fill="#ffffff"/>
<path d="M336.346 73.3923C336.838 72.6246 337.312 71.8397 337.752 71.0462C343.273 61.0926 344.205 50.4748 340.375 41.1594C336.536 31.8441 328.409 24.9524 317.479 21.7697C306.618 18.6042 294.281 19.4753 282.738 24.2279C275.699 27.126 269.461 31.2575 264.423 36.2861C264.898 36.6225 265.346 37.002 265.743 37.4247C270.609 32.6031 276.605 28.6268 283.394 25.8408C289.597 23.2877 296.032 21.8904 302.33 21.6748C307.377 21.5023 312.32 22.0888 316.987 23.443C327.4 26.4791 335.129 33.0085 338.761 41.8236C342.393 50.6387 341.487 60.7217 336.225 70.2009C335.828 70.9255 335.397 71.6327 334.957 72.3314C335.449 72.6419 335.914 72.9955 336.337 73.3923" fill="#ffffff"/>
<path d="M258.842 35.2768C254.149 35.4406 250.482 39.3738 250.638 44.0574C250.75 47.2832 252.648 50.0261 255.339 51.3716C255.684 49.4309 256.556 47.7059 257.979 46.1878C256.487 46.0326 255.477 45.3512 254.934 44.135C254.735 43.6865 254.632 43.2034 254.632 42.6859L254.658 42.384C254.727 41.9269 254.917 41.487 255.227 41.0644L255.4 40.8315C256.219 39.8309 257.142 39.3307 258.152 39.3307H258.16C259.187 39.3393 260.153 39.7188 261.076 40.4692L260.343 40.2881C260.179 40.245 259.946 40.2277 259.627 40.2277C258.799 40.2277 257.962 40.3916 257.125 40.7107C256.331 41.0212 255.805 41.4352 255.382 41.7544C255.443 42.729 255.831 43.4363 256.72 44.0487C257.315 44.4541 257.927 44.6525 258.54 44.6525H258.566C259.308 44.6525 259.825 44.5404 260.127 44.3247C261.525 43.3069 262.862 42.522 264.13 41.9614L263.587 43.5312C259.29 45.6617 256.702 48.1544 255.814 51.0094C255.762 51.1819 255.727 51.3544 255.684 51.5269C256.823 52.0358 258.091 52.3032 259.42 52.26C264.113 52.0962 267.779 48.163 267.624 43.4795C267.46 38.7873 263.526 35.1129 258.842 35.2768Z" fill="#ffffff"/>
<path d="M355.851 34.7863C352.599 26.8855 347.069 20.2784 339.762 15.3793C339.27 16.1038 338.692 16.7593 338.036 17.3458C345.041 21.9949 350.338 28.2741 353.427 35.7868C358.336 47.7156 357.119 61.3523 350.002 74.1782C342.842 87.0817 330.583 97.6046 315.477 103.815C300.371 110.025 284.256 111.172 270.091 107.049C256.012 102.944 245.547 94.1199 240.639 82.1825C235.73 70.2536 236.946 56.617 244.064 43.7911C251.224 30.8876 263.483 20.3647 278.588 14.1545C286.974 10.7043 295.67 8.81537 304.167 8.53074C309.887 8.33236 315.512 8.86713 320.903 10.1264C320.903 9.97117 320.878 9.81591 320.878 9.65203C320.878 8.9275 320.955 8.22885 321.093 7.54745C307.282 4.4337 292.003 5.91726 277.631 11.8256C261.964 18.2687 249.231 29.2143 241.777 42.6353C234.281 56.134 233.021 70.5297 238.223 83.1658C243.425 95.8019 254.45 105.143 269.28 109.464C275.854 111.379 282.824 112.207 289.916 111.957C298.741 111.655 307.756 109.697 316.443 106.126C332.11 99.6833 344.843 88.7377 352.297 75.3167C359.793 61.8181 361.053 47.4224 355.851 34.7863Z" fill="#ffffff"/>
<path d="M330.376 71.6758C325.933 71.6758 322.335 75.2725 322.335 79.7146C322.335 84.1566 325.933 87.7534 330.376 87.7534C334.206 87.7534 337.398 85.0796 338.209 81.5C337.821 81.5345 337.381 81.638 336.863 81.8278C336.242 82.0521 335.69 82.2504 335.207 82.4229C334.724 82.5955 334.344 82.7335 334.059 82.837C332.032 83.5529 330.186 83.9151 328.512 83.9151C326.58 83.9151 325.217 83.389 324.423 82.3453C324.052 81.6725 323.871 80.9825 323.871 80.2666C323.871 79.5507 324.13 78.5933 324.647 77.3685C324.699 77.2477 324.734 77.2133 324.76 77.265C324.785 77.3168 324.794 77.3513 324.794 77.3771C324.535 78.0413 324.406 78.6623 324.406 79.2316C324.406 80.7755 325.294 81.7588 327.063 82.1901C327.503 82.2936 328.124 82.3539 328.909 82.3626C330.936 82.3539 333.283 81.8364 335.957 80.8186C337.001 80.4219 337.821 80.1717 338.416 80.0596C338.416 79.9475 338.433 79.8267 338.433 79.7146C338.433 75.2725 334.836 71.6758 330.393 71.6758M333.947 77.8084L332.498 76.713L331.652 77.9205L330.177 76.851L331.023 75.6003L332.498 76.6785L333.352 75.4709L334.827 76.5663L333.947 77.817V77.8084Z" fill="#ffffff"/>
<path d="M331.196 0.000812837C325.873 0.000812837 321.542 4.33073 321.542 9.65257C321.542 11.2224 321.922 12.6973 322.594 13.9997C325.536 12.5938 327.529 11.4898 328.547 10.6876C329.298 10.1011 329.858 9.51456 330.238 8.92804C330.617 8.34151 330.937 7.80674 331.187 7.3151L331.213 7.28922C331.213 7.28922 331.29 7.35823 331.334 7.4186C331.748 6.69407 332.213 6.26281 332.705 6.11618C332.757 6.09893 332.826 6.0903 332.895 6.0903C333.473 6.0903 333.965 6.69407 334.379 7.91025C334.474 8.20351 334.525 8.44502 334.525 8.66065C334.525 8.87628 334.275 9.35068 333.775 10.0752H333.74C332.74 10.058 331.825 9.8337 330.98 9.06604L330.738 8.84178L330.264 9.78195C329.375 11.6019 327.443 13.0596 324.449 14.4914C323.923 14.7415 323.509 14.9399 323.224 15.0779C324.967 17.6224 327.883 19.2957 331.196 19.2957C336.518 19.2957 340.849 14.9658 340.849 9.64394C340.849 4.32211 336.518 -0.0078125 331.196 -0.0078125" fill="#ffffff"/>
<path d="M332.61 7.64989C332.532 7.59814 332.455 7.57227 332.369 7.57227C332.196 7.57227 332.015 7.65852 331.816 7.8224C332.377 8.21917 332.903 8.47793 333.378 8.61593C333.214 8.24504 332.955 7.91728 332.61 7.64127" fill="#ffffff"/>
<path d="M2.0532 106.013H0V105.021H5.25378V106.013H3.20058V111.352H2.0532V106.013Z" fill="#ffffff"/>
<path d="M11.8018 105.021V111.352H10.6544V108.635H7.44523V111.352H6.29785V105.021H7.44523V107.635H10.6544V105.021H11.8018Z" fill="#ffffff"/>
<path d="M18.2891 110.361V111.352H13.6392V105.021H18.1597V106.005H14.7952V107.652H17.7801V108.618H14.7952V110.361H18.2891Z" fill="#ffffff"/>
<path d="M26.3812 109.886H23.2841L22.6716 111.352H21.4897L24.2762 105.021H25.4064L28.2015 111.352H26.9937L26.3726 109.886H26.3812ZM26.0016 108.963L24.837 106.195L23.681 108.963H26.0102H26.0016Z" fill="#ffffff"/>
<path d="M33.2221 111.352L31.954 109.498C31.8763 109.507 31.7987 109.507 31.7124 109.507H30.3149V111.352H29.1675V105.021H31.7124C33.3429 105.021 34.3436 105.867 34.3436 107.273C34.3436 108.23 33.8691 108.937 33.0237 109.274L34.4471 111.352H33.2135H33.2221ZM31.6693 106.013H30.3235V108.541H31.6693C32.6786 108.541 33.1962 108.066 33.1962 107.273C33.1962 106.479 32.67 106.013 31.6693 106.013Z" fill="#ffffff"/>
<path d="M39.8304 109.886H36.7334L36.1208 111.352H34.939L37.7255 105.021H38.8556L41.6507 111.352H40.4429L39.8218 109.886H39.8304ZM39.4508 108.963L38.2862 106.195L37.1302 108.963H39.4595H39.4508Z" fill="#ffffff"/>
<path d="M48.1207 109.636C48.1207 110.723 47.2925 111.352 45.6965 111.352H42.6167V105.021H45.5153C46.9992 105.021 47.8015 105.66 47.8015 106.669C47.8015 107.324 47.4823 107.799 47.0078 108.058C47.6721 108.273 48.1207 108.808 48.1207 109.627M43.7727 105.936V107.678H45.4032C46.1969 107.678 46.6541 107.385 46.6541 106.807C46.6541 106.229 46.2055 105.927 45.4032 105.927H43.7727V105.936ZM46.9647 109.507C46.9647 108.877 46.4988 108.592 45.6275 108.592H43.7727V110.421H45.6275C46.4902 110.421 46.9647 110.136 46.9647 109.507Z" fill="#ffffff"/>
<path d="M50.6742 105.021H49.5269V111.352H50.6742V105.021Z" fill="#ffffff"/>
<path d="M52.0806 108.187C52.0806 106.298 53.4954 104.936 55.3933 104.936C56.4026 104.936 57.2653 105.306 57.8433 105.996L57.1014 106.712C56.6528 106.212 56.0921 105.971 55.4451 105.971C54.1596 105.971 53.2366 106.893 53.2366 108.196C53.2366 109.498 54.1683 110.421 55.4451 110.421C56.0921 110.421 56.6528 110.18 57.1014 109.671L57.8433 110.395C57.2653 111.085 56.4026 111.456 55.3847 111.456C53.4954 111.456 52.0806 110.093 52.0806 108.205" fill="#ffffff"/>
<path d="M61.3115 108.187C61.3115 106.316 62.7263 104.936 64.6501 104.936C66.5739 104.936 67.9801 106.307 67.9801 108.187C67.9801 110.068 66.5653 111.439 64.6501 111.439C62.735 111.439 61.3115 110.059 61.3115 108.187ZM66.8241 108.187C66.8241 106.893 65.8924 105.962 64.6501 105.962C63.4079 105.962 62.4762 106.893 62.4762 108.187C62.4762 109.481 63.4079 110.413 64.6501 110.413C65.8924 110.413 66.8241 109.481 66.8241 108.187Z" fill="#ffffff"/>
<path d="M74.8814 109.636C74.8814 110.723 74.0532 111.352 72.4572 111.352H69.3774V105.021H72.2761C73.7599 105.021 74.5622 105.66 74.5622 106.669C74.5622 107.324 74.243 107.799 73.7685 108.058C74.4328 108.273 74.8814 108.808 74.8814 109.627M70.5335 105.936V107.678H72.1639C72.9576 107.678 73.4148 107.385 73.4148 106.807C73.4148 106.229 72.9662 105.927 72.1639 105.927H70.5335V105.936ZM73.7254 109.507C73.7254 108.877 73.2596 108.592 72.3882 108.592H70.5335V110.421H72.3882C73.2509 110.421 73.7254 110.136 73.7254 109.507Z" fill="#ffffff"/>
<path d="M75.7617 110.68L76.1586 109.766C76.6503 110.171 77.444 110.464 78.2031 110.464C79.1693 110.464 79.5748 110.111 79.5748 109.645C79.5748 108.282 75.8998 109.179 75.8998 106.824C75.8998 105.807 76.6934 104.936 78.3929 104.936C79.1348 104.936 79.9113 105.134 80.4548 105.496L80.0924 106.41C79.5317 106.074 78.9278 105.91 78.3843 105.91C77.4267 105.91 77.0385 106.29 77.0385 106.773C77.0385 108.118 80.7049 107.239 80.7049 109.567C80.7049 110.577 79.9026 111.448 78.2031 111.448C77.2369 111.448 76.2793 111.137 75.7617 110.689" fill="#ffffff"/>
<path d="M86.6743 110.361V111.352H82.0244V105.021H86.5449V106.005H83.1804V107.652H86.1653V108.618H83.1804V110.361H86.6743Z" fill="#ffffff"/>
<path d="M92.187 111.352L90.9188 109.498C90.8412 109.507 90.7635 109.507 90.6773 109.507H89.2797V111.352H88.1323V105.021H90.6773C92.3077 105.021 93.3085 105.867 93.3085 107.273C93.3085 108.23 92.834 108.937 91.9885 109.274L93.412 111.352H92.1783H92.187ZM90.6341 106.013H89.2883V108.541H90.6341C91.6435 108.541 92.1611 108.066 92.1611 107.273C92.1611 106.479 91.6348 106.013 90.6341 106.013Z" fill="#ffffff"/>
<path d="M100.434 105.021L97.7428 111.352H96.604L93.9038 105.021H95.1461L97.2079 109.903L99.287 105.021H100.434Z" fill="#ffffff"/>
<path d="M105.093 109.886H101.996L101.384 111.352H100.202L102.988 105.021H104.118L106.913 111.352H105.706L105.084 109.886H105.093ZM104.714 108.963L103.549 106.195L102.393 108.963H104.722H104.714Z" fill="#ffffff"/>
<path d="M108.829 106.013H106.775V105.021H112.029V106.013H109.976V111.352H108.829V106.013Z" fill="#ffffff"/>
<path d="M112.538 108.187C112.538 106.316 113.953 104.936 115.877 104.936C117.801 104.936 119.207 106.307 119.207 108.187C119.207 110.068 117.792 111.439 115.877 111.439C113.962 111.439 112.538 110.059 112.538 108.187ZM118.051 108.187C118.051 106.893 117.119 105.962 115.877 105.962C114.634 105.962 113.703 106.893 113.703 108.187C113.703 109.481 114.634 110.413 115.877 110.413C117.119 110.413 118.051 109.481 118.051 108.187Z" fill="#ffffff"/>
<path d="M124.659 111.352L123.39 109.498C123.313 109.507 123.235 109.507 123.149 109.507H121.751V111.352H120.604V105.021H123.149C124.779 105.021 125.78 105.867 125.78 107.273C125.78 108.23 125.306 108.937 124.46 109.274L125.884 111.352H124.65H124.659ZM123.106 106.013H121.76V108.541H123.106C124.115 108.541 124.633 108.066 124.633 107.273C124.633 106.479 124.107 106.013 123.106 106.013Z" fill="#ffffff"/>
<path d="M129.835 109.119V111.352H128.688V109.136L126.255 105.021H127.48L129.3 108.101L131.129 105.021H132.259L129.835 109.119Z" fill="#ffffff"/>
<path d="M135.365 108.187C135.365 106.316 136.78 104.936 138.703 104.936C140.627 104.936 142.033 106.307 142.033 108.187C142.033 110.068 140.619 111.439 138.703 111.439C136.788 111.439 135.365 110.059 135.365 108.187ZM140.877 108.187C140.877 106.893 139.946 105.962 138.703 105.962C137.461 105.962 136.529 106.893 136.529 108.187C136.529 109.481 137.461 110.413 138.703 110.413C139.946 110.413 140.877 109.481 140.877 108.187Z" fill="#ffffff"/>
<path d="M144.587 106.005V107.928H147.572V108.929H144.587V111.352H143.431V105.021H147.951V106.005H144.587Z" fill="#ffffff"/>
<path d="M153.119 106.013H151.066V105.021H156.328V106.013H154.275V111.352H153.119V106.013Z" fill="#ffffff"/>
<path d="M161.418 111.352L160.15 109.498C160.072 109.507 159.994 109.507 159.908 109.507H158.511V111.352H157.363V105.021H159.908C161.539 105.021 162.539 105.867 162.539 107.273C162.539 108.23 162.065 108.937 161.22 109.274L162.643 111.352H161.409H161.418ZM159.865 106.013H158.519V108.541H159.865C160.874 108.541 161.392 108.066 161.392 107.273C161.392 106.479 160.866 106.013 159.865 106.013Z" fill="#ffffff"/>
<path d="M168.026 109.886H164.929L164.317 111.352H163.135L165.921 105.021H167.051L169.846 111.352H168.639L168.018 109.886H168.026ZM167.647 108.963L166.482 106.195L165.326 108.963H167.655H167.647Z" fill="#ffffff"/>
<path d="M176.316 105.021V111.352H175.368L171.96 107.066V111.352H170.812V105.021H171.761L175.178 109.308V105.021H176.316Z" fill="#ffffff"/>
<path d="M177.637 110.68L178.034 109.766C178.525 110.171 179.319 110.464 180.078 110.464C181.044 110.464 181.45 110.111 181.45 109.645C181.45 108.282 177.775 109.179 177.775 106.824C177.775 105.807 178.568 104.936 180.268 104.936C181.01 104.936 181.786 105.134 182.33 105.496L181.967 106.41C181.407 106.074 180.803 105.91 180.259 105.91C179.302 105.91 178.913 106.29 178.913 106.773C178.913 108.118 182.589 107.239 182.589 109.567C182.589 110.577 181.786 111.448 180.087 111.448C179.121 111.448 178.163 111.137 177.645 110.689" fill="#ffffff"/>
<path d="M183.9 105.021H185.047V110.352H188.291V111.352H183.9V105.021Z" fill="#ffffff"/>
<path d="M193.441 109.886H190.344L189.732 111.352H188.55L191.336 105.021H192.466L195.262 111.352H194.054L193.433 109.886H193.441ZM193.062 108.963L191.897 106.195L190.741 108.963H193.07H193.062Z" fill="#ffffff"/>
<path d="M197.168 106.013H195.115V105.021H200.377V106.013H198.324V111.352H197.168V106.013Z" fill="#ffffff"/>
<path d="M202.568 105.021H201.421V111.352H202.568V105.021Z" fill="#ffffff"/>
<path d="M203.975 108.187C203.975 106.316 205.389 104.936 207.313 104.936C209.237 104.936 210.643 106.307 210.643 108.187C210.643 110.068 209.228 111.439 207.313 111.439C205.398 111.439 203.975 110.059 203.975 108.187ZM209.487 108.187C209.487 106.893 208.555 105.962 207.313 105.962C206.071 105.962 205.139 106.893 205.139 108.187C205.139 109.481 206.071 110.413 207.313 110.413C208.555 110.413 209.487 109.481 209.487 108.187Z" fill="#ffffff"/>
<path d="M217.544 105.021V111.352H216.596L213.179 107.066V111.352H212.041V105.021H212.989L216.406 109.308V105.021H217.544Z" fill="#ffffff"/>
<path d="M107.474 12.0404C108.595 11.5402 109.406 10.9795 109.915 10.3412C110.2 10.4275 110.467 10.5396 110.718 10.669C110.968 10.7984 111.158 10.945 111.296 11.1089H111.408L111.839 9.50459C111.787 9.33208 111.692 9.15958 111.554 8.98707C111.416 8.81456 111.253 8.69381 111.054 8.63343L110.649 8.4868C110.657 8.40055 110.683 8.28842 110.726 8.14179C110.761 7.99516 110.795 7.8399 110.83 7.66739C110.864 7.49489 110.89 7.32238 110.916 7.14987C110.942 6.97737 110.951 6.81349 110.951 6.66685C110.951 6.32184 110.925 5.98545 110.864 5.65769C110.813 5.32993 110.718 5.04529 110.597 4.80378C110.476 4.55365 110.312 4.35526 110.122 4.20863C109.933 4.062 109.7 3.98438 109.424 3.98438C109.148 3.98438 108.82 4.07925 108.44 4.27764C108.052 4.47602 107.681 4.7434 107.327 5.07979C106.974 5.41618 106.672 5.80432 106.413 6.23559C106.154 6.66685 106.033 7.13262 106.033 7.61564C106.033 7.91753 106.102 8.17629 106.249 8.40917C106.396 8.64206 106.577 8.84044 106.792 9.01295C107.008 9.18545 107.25 9.33208 107.508 9.45284C107.767 9.57359 108.017 9.66847 108.25 9.7461C107.819 10.0307 107.396 10.2895 106.991 10.5138C106.585 10.738 106.18 10.945 105.757 11.1348C105.343 11.3245 104.912 11.5057 104.463 11.6782C104.015 11.8507 103.54 12.0146 103.048 12.1871L103.195 12.9892C104.938 12.8685 106.361 12.558 107.483 12.0577M107.802 7.33101C107.543 7.0895 107.414 6.85661 107.414 6.63235C107.414 6.5461 107.457 6.45122 107.543 6.34772C107.629 6.24421 107.741 6.14071 107.879 6.04583C108.017 5.95095 108.164 5.87332 108.319 5.80432C108.475 5.73532 108.63 5.70082 108.777 5.70082C109.01 5.70082 109.191 5.85607 109.311 6.17521C109.432 6.49435 109.493 6.83936 109.493 7.21025C109.493 7.30513 109.475 7.45176 109.45 7.63289C109.415 7.81402 109.38 7.95203 109.346 8.05553C108.587 7.82265 108.078 7.58114 107.819 7.33963" fill="#ffffff"/>
<path d="M138.816 36.4512H148.728C149.375 36.4512 149.988 36.3563 150.557 36.1493C151.126 35.9509 151.653 35.6921 152.136 35.3644C152.619 35.0366 153.067 34.6744 153.481 34.2517C153.887 33.8377 154.267 33.4064 154.603 32.9752C154.793 33.1735 155.008 33.3633 155.259 33.5444C155.509 33.7256 155.759 33.8894 156.018 34.0447C156.268 34.2 156.518 34.338 156.742 34.4587C156.975 34.5795 157.165 34.6744 157.329 34.7434C157.139 35.1142 156.958 35.5541 156.768 36.0458C156.579 36.5461 156.397 37.0463 156.225 37.5466C156.052 38.0469 155.888 38.5385 155.75 39.0129C155.604 39.4873 155.483 39.8927 155.388 40.2204L155.966 40.3671C156.113 39.9703 156.294 39.5304 156.501 39.0474C156.708 38.5644 156.924 38.0814 157.157 37.5983C157.389 37.1153 157.605 36.6496 157.829 36.2183C158.045 35.787 158.235 35.4248 158.399 35.1401C158.856 35.2781 159.348 35.373 159.874 35.442C160.392 35.5024 160.97 35.5369 161.591 35.5369C162.488 35.5369 163.411 35.4765 164.36 35.3558C165.309 35.235 166.249 35.0625 167.172 34.821C168.095 34.5881 168.984 34.2948 169.829 33.9585C170.675 33.6221 171.434 33.2253 172.124 32.794C172.426 32.6043 172.763 32.311 173.151 31.9056C173.539 31.5002 173.893 31.0172 174.229 30.4652C174.566 29.9045 174.85 29.2921 175.083 28.6194C175.316 27.9466 175.437 27.2566 175.437 26.5493C175.437 26.4113 175.333 26.1956 175.126 25.8938C174.919 25.5919 174.626 25.2986 174.246 24.9967C173.867 24.6948 173.41 24.4361 172.875 24.2032C172.34 23.9703 171.745 23.8582 171.089 23.8582C170.58 23.8582 170.002 23.9876 169.355 24.2463C168.708 24.5051 168.026 24.8587 167.293 25.29C166.569 25.7299 165.827 26.2301 165.067 26.7908C164.308 27.3514 163.566 27.938 162.85 28.5331C162.126 29.1283 161.435 29.7234 160.78 30.3186C160.124 30.9137 159.538 31.4657 159.029 31.9574C158.468 31.7849 157.976 31.5779 157.536 31.3364C157.105 31.0948 156.725 30.8361 156.415 30.5601C156.268 30.4221 156.13 30.2927 155.992 30.1633C155.863 30.0339 155.75 29.9218 155.647 29.8183H155.328C155.095 30.0684 154.836 30.3272 154.568 30.5946C154.301 30.862 154.008 31.1207 153.697 31.3881C153.387 31.6469 153.059 31.8884 152.722 32.1126C152.377 32.3369 152.015 32.5353 151.635 32.7078C151.247 32.8803 150.85 33.0183 150.428 33.1218C150.005 33.2253 149.565 33.2684 149.108 33.2684H116.903C115.575 33.2684 114.522 32.8458 113.755 31.9919C112.987 31.138 112.443 29.9563 112.133 28.4382C111.762 26.6097 111.399 24.7983 111.046 23.0043C110.692 21.2102 110.356 19.3989 110.028 17.5703H109.821C109.657 17.8549 109.502 18.1568 109.346 18.4673C109.191 18.7779 109.053 19.0797 108.932 19.3816C108.811 19.6835 108.716 19.9682 108.639 20.2442C108.561 20.5202 108.527 20.7789 108.527 21.0204C108.527 21.262 108.57 21.6415 108.656 22.1849C108.742 22.7283 108.846 23.332 108.975 24.0048C109.096 24.6776 109.225 25.3676 109.364 26.0835C109.502 26.7994 109.622 27.4377 109.734 28.007C109.734 28.5331 109.726 28.9644 109.7 29.3008C109.674 29.6458 109.631 29.9304 109.562 30.1547C109.493 30.3876 109.389 30.5773 109.243 30.7326C109.096 30.8878 108.906 31.0258 108.673 31.1552C107.931 31.5779 107.112 31.8884 106.223 32.0954C105.335 32.3024 104.489 32.4059 103.696 32.4059C103.152 32.4059 102.695 32.38 102.324 32.3196C101.953 32.2679 101.66 32.1903 101.418 32.0868C101.185 31.9919 101.004 31.8711 100.883 31.7417C100.762 31.6124 100.685 31.4744 100.633 31.345C100.555 31.138 100.504 30.9223 100.478 30.7153C100.443 30.4997 100.417 30.2841 100.392 30.0598L99.7618 30.0253C99.572 30.6636 99.4167 31.276 99.2873 31.8711C99.1579 32.4663 99.0889 33.07 99.0889 33.6824C99.0889 34.131 99.1493 34.4932 99.2787 34.7779C99.3994 35.0625 99.5979 35.2868 99.8739 35.4506C100.15 35.6145 100.504 35.7266 100.935 35.787C101.366 35.8474 101.901 35.8819 102.522 35.8819C103.144 35.8819 103.739 35.8388 104.377 35.7525C105.016 35.6663 105.645 35.5283 106.249 35.3558C106.862 35.1746 107.431 34.9504 107.975 34.6744C108.518 34.3983 108.993 34.0878 109.398 33.7256C109.648 33.3978 109.872 32.9924 110.08 32.5008C110.287 32.0091 110.442 31.5434 110.554 31.0948H110.683C110.873 32.2161 111.158 33.1218 111.563 33.8118C111.96 34.5105 112.426 35.0539 112.952 35.442C113.479 35.8301 114.048 36.0975 114.669 36.2355C115.282 36.3735 115.894 36.4425 116.507 36.4425H138.816V36.4512ZM163.075 30.2927C163.937 29.6544 164.765 29.0765 165.559 28.5676C166.353 28.0587 167.077 27.6447 167.733 27.3342C168.389 27.0237 168.889 26.8684 169.251 26.8684C169.674 26.8684 170.088 26.9374 170.485 27.0841C170.882 27.2307 171.262 27.4118 171.615 27.6361C171.969 27.8603 172.288 28.1105 172.581 28.3779C172.875 28.6539 173.134 28.9213 173.358 29.18C172.909 29.5682 172.383 29.9132 171.779 30.2151C171.175 30.5169 170.537 30.7843 169.847 31.0172C169.165 31.2501 168.458 31.4399 167.725 31.5951C166.991 31.7504 166.267 31.8797 165.542 31.9833C164.817 32.0868 164.127 32.1644 163.463 32.2075C162.799 32.2506 162.186 32.2765 161.625 32.2765C161.453 32.2765 161.28 32.2765 161.116 32.2679C160.952 32.2679 160.788 32.2506 160.642 32.242C161.401 31.5865 162.212 30.931 163.075 30.2927Z" fill="#ffffff"/>
<path d="M178.534 23.7707C178.698 23.9346 178.879 24.064 179.086 24.1416C179.293 24.2193 179.5 24.2624 179.707 24.2624C180.449 24.2624 181.053 24.1589 181.519 23.9605C181.976 23.7621 182.33 23.4861 182.58 23.1325C182.83 22.7788 182.994 22.3562 183.08 21.8732C183.167 21.3902 183.21 20.864 183.21 20.312C183.21 19.829 183.115 19.3891 182.934 19.0096C182.744 18.6214 182.511 18.2937 182.235 18.0176C181.959 17.733 181.657 17.526 181.338 17.3707C181.018 17.2241 180.734 17.1465 180.475 17.1465C180.285 17.1465 180.052 17.319 179.776 17.664C179.491 18.009 179.224 18.4403 178.957 18.9578C178.689 19.4753 178.465 20.0273 178.275 20.6139C178.085 21.2004 177.999 21.7352 177.999 22.2096C177.999 22.5718 178.051 22.8737 178.146 23.1325C178.249 23.3826 178.379 23.5982 178.534 23.7621M179.336 20.0877C179.535 19.7082 179.776 19.3546 180.061 19.0354C180.673 19.2424 181.191 19.553 181.622 19.9497C182.054 20.3465 182.278 20.8468 182.295 21.4592C182.183 21.5713 182.045 21.6748 181.873 21.7783C181.709 21.8732 181.519 21.968 181.32 22.0457C181.122 22.1233 180.915 22.1923 180.699 22.2441C180.484 22.2958 180.277 22.3217 180.078 22.3217C179.655 22.3217 179.379 22.2096 179.241 21.9939C179.103 21.7783 179.034 21.485 179.034 21.1055C179.034 20.8123 179.129 20.4672 179.336 20.0877Z" fill="#ffffff"/>
<path d="M194.778 21.925C196.02 21.4248 197.349 20.9504 198.764 20.5191L199.678 18.173L199.532 18.0781C198.255 18.4749 197.012 18.8889 195.822 19.3288C194.631 19.7687 193.536 20.2517 192.544 20.8037C192.38 20.89 192.225 21.0366 192.069 21.2522C191.914 21.4593 191.767 21.7008 191.638 21.9595C191.508 22.2183 191.388 22.477 191.284 22.7444C191.181 23.0032 191.103 23.2361 191.051 23.4345L191.198 23.5466C192.337 22.9773 193.536 22.4339 194.778 21.9337" fill="#ffffff"/>
<path d="M210.341 25.7375C210.238 24.944 210.125 24.0815 210.005 23.1586C209.884 22.2356 209.754 21.2955 209.625 20.3381C209.496 19.3807 209.366 18.4405 209.254 17.509C209.133 16.5774 209.03 15.7149 208.943 14.9214C209.107 14.861 209.254 14.7144 209.401 14.4901C209.547 14.2658 209.677 13.9898 209.806 13.6621C209.927 13.3343 210.039 12.9807 210.143 12.5925C210.237 12.2044 210.332 11.8249 210.401 11.454C210.194 11.2728 209.953 11.0831 209.694 10.8933C209.435 10.7036 209.194 10.5138 208.969 10.3154C208.745 10.117 208.555 9.90141 208.391 9.65991C208.227 9.42702 208.141 9.15964 208.133 8.875H207.839C207.563 9.59953 207.304 10.2206 207.063 10.7553C206.821 11.2901 206.7 11.7559 206.7 12.1526C206.7 12.3769 206.744 12.5753 206.821 12.7564C206.899 12.9375 207.028 13.1359 207.201 13.3429C207.175 13.4896 207.158 13.6448 207.132 13.8087C207.115 13.9726 207.106 14.1365 207.106 14.309C207.106 14.6971 207.14 15.2319 207.218 15.9219C207.296 16.6119 207.391 17.3882 207.503 18.2594C207.624 19.1305 207.753 20.0621 207.908 21.054C208.055 22.0459 208.21 23.0551 208.374 24.0642C208.538 25.0734 208.693 26.0653 208.84 27.0227C208.987 27.9887 209.125 28.8685 209.254 29.6793C209.28 29.9639 209.297 30.2745 209.297 30.6022C209.297 30.93 209.306 31.2405 209.306 31.5251C208.995 32.1203 208.538 32.5602 207.925 32.8448C207.313 33.1294 206.476 33.2761 205.389 33.2761C204.846 33.2761 204.363 33.2416 203.948 33.1812C203.534 33.1208 203.163 33.0259 202.827 32.9138C202.499 32.7931 202.197 32.6464 201.921 32.4653C201.645 32.2842 201.378 32.0772 201.119 31.8443C200.299 31.1284 199.678 30.4556 199.264 29.8432C198.85 29.2308 198.522 28.696 198.298 28.2561C198.065 27.8162 197.867 27.4712 197.694 27.2211C197.521 26.971 197.263 26.8502 196.926 26.8502C196.676 26.8502 196.4 26.9365 196.089 27.109C195.779 27.2815 195.468 27.5316 195.166 27.8507C194.864 28.1699 194.571 28.5666 194.304 29.0324C194.028 29.4982 193.803 30.0243 193.613 30.6108C193.251 31.2232 192.846 31.7321 192.388 32.1548C191.914 32.5515 191.379 32.8362 190.767 33.0087C190.163 33.1812 189.421 33.2675 188.541 33.2675C187.014 33.2675 185.711 32.9311 184.633 32.2669C183.554 31.6028 182.813 30.6281 182.416 29.3343H182.157C181.967 29.8432 181.812 30.4038 181.682 31.0162C181.553 31.6286 181.484 32.2928 181.484 33.0001C181.484 33.3882 181.605 33.7246 181.855 34.0265C182.105 34.3284 182.398 34.5871 182.735 34.8286C183.08 35.0788 183.425 35.2772 183.762 35.4324C184.098 35.5877 184.348 35.7084 184.529 35.7947C184.365 36.3036 184.098 36.8815 183.727 37.5284C183.356 38.1753 182.899 38.8308 182.355 39.5036C181.812 40.1763 181.199 40.8232 180.518 41.4615C179.836 42.0912 179.103 42.6604 178.327 43.1607C177.55 43.661 176.731 44.0577 175.877 44.3596C175.022 44.6615 174.151 44.8168 173.271 44.8168C172.849 44.8168 172.409 44.7823 171.951 44.7046C171.494 44.627 170.925 44.4718 170.252 44.2389L170.062 44.7995C170.649 45.1359 171.244 45.4292 171.848 45.6793C172.46 45.9294 173.047 46.1365 173.625 46.3003C174.203 46.4642 174.746 46.5936 175.264 46.6712C175.782 46.7489 176.239 46.792 176.636 46.792C177.447 46.792 178.197 46.6367 178.913 46.3348C179.621 46.0329 180.276 45.6103 180.88 45.0842C181.484 44.558 182.036 43.937 182.537 43.2383C183.037 42.5397 183.485 41.7893 183.874 40.9958C184.262 40.2022 184.598 39.3828 184.883 38.5375C185.159 37.6922 185.392 36.8642 185.565 36.0621L185.694 35.9844C185.806 36.0793 185.953 36.1569 186.134 36.2173C186.315 36.2777 186.514 36.3122 186.729 36.3467C186.945 36.3812 187.178 36.3984 187.428 36.4157C187.678 36.4243 187.92 36.433 188.153 36.433C188.627 36.433 189.084 36.4071 189.524 36.3467C189.964 36.2949 190.396 36.1656 190.818 35.9758C191.241 35.786 191.647 35.5014 192.043 35.1305C192.432 34.7596 192.82 34.2594 193.191 33.6383C193.639 34.0524 194.079 34.4319 194.519 34.7769C194.959 35.1219 195.425 35.441 195.908 35.7257C196.391 36.0103 196.918 36.2691 197.496 36.4933C198.065 36.7176 198.721 36.9073 199.454 37.0712C199.626 37.0712 199.79 36.9936 199.946 36.847C200.101 36.7003 200.239 36.5192 200.377 36.3036C200.506 36.0966 200.618 35.8723 200.722 35.6308C200.817 35.3979 200.903 35.1823 200.964 34.9925C201.3 35.2427 201.611 35.4497 201.895 35.6308C202.18 35.8033 202.482 35.9499 202.792 36.0793C203.103 36.2001 203.431 36.2949 203.793 36.3467C204.147 36.4071 204.561 36.433 205.035 36.433C206.071 36.433 206.916 36.2949 207.598 36.0017C208.271 35.717 208.866 35.2685 209.375 34.6561C209.746 34.0006 210.056 33.2157 210.315 32.3014C210.565 31.3871 210.695 30.3262 210.695 29.1273C210.695 28.8427 210.66 28.4028 210.6 27.8076C210.539 27.2125 210.453 26.5138 210.358 25.7203M198.229 32.9828C197.97 32.8966 197.685 32.7844 197.375 32.6378C197.064 32.4998 196.754 32.3273 196.452 32.1462C196.15 31.9564 195.865 31.7666 195.598 31.5596C195.33 31.3526 195.106 31.1456 194.916 30.9386C194.994 30.6367 195.106 30.378 195.27 30.1451C195.434 29.9122 195.606 29.7224 195.796 29.5758C195.986 29.4292 196.158 29.3084 196.34 29.2308C196.512 29.1532 196.65 29.11 196.745 29.11C196.857 29.6793 197.056 30.309 197.34 30.999C197.625 31.689 197.953 32.31 198.324 32.8707L198.229 32.9828Z" fill="#ffffff"/>
<path d="M214.404 20.9254C214.568 21.9001 214.732 22.9179 214.913 23.9788C215.095 25.0397 215.267 26.1006 215.422 27.1615C215.586 28.2224 215.716 29.2661 215.819 30.2925C215.923 31.3189 215.975 32.285 215.975 33.1906C215.975 33.6219 215.957 34.079 215.94 34.5448C215.914 35.0106 215.871 35.416 215.811 35.7696L216.354 35.899C216.466 35.6661 216.587 35.3642 216.717 34.9933C216.846 34.6224 216.967 34.1912 217.087 33.6909C217.208 33.1906 217.303 32.6214 217.389 31.9831C217.467 31.3534 217.51 30.6462 217.51 29.8785C217.51 29.43 217.467 28.8003 217.372 27.9809C217.277 27.1615 217.165 26.23 217.018 25.1863C216.872 24.1427 216.717 23.0214 216.544 21.8224C216.371 20.6235 216.199 19.4246 216.044 18.2343C215.88 17.044 215.733 15.8882 215.604 14.7669C215.474 13.6456 215.379 12.6451 215.336 11.748H215.146C214.862 12.3777 214.586 13.0505 214.318 13.7491C214.051 14.4478 213.896 15.1723 213.844 15.9227C213.844 16.5696 213.896 17.32 213.999 18.1739C214.103 19.0278 214.241 19.9507 214.404 20.9254Z" fill="#ffffff"/>
<path d="M4.15797 58.8509C4.40815 59.0321 4.64108 59.2046 4.87401 59.3857C5.10693 59.5582 5.31398 59.7135 5.49514 59.8342C5.80571 59.4633 6.0904 59.0752 6.34058 58.6612C6.59076 58.2472 6.80643 57.8935 6.9876 57.6003C7.03936 57.514 7.09975 57.4709 7.17739 57.4709C7.22915 57.4709 7.28954 57.5054 7.37581 57.5658C7.45345 57.6261 7.54835 57.6865 7.64324 57.7555C8.03145 58.0401 8.43692 58.342 8.88552 58.6612C9.32549 58.9803 9.69645 59.2391 9.99839 59.4547C10.1364 59.3081 10.2917 59.1097 10.4556 58.8768C10.6195 58.6439 10.7921 58.3938 10.9473 58.1437C11.1113 57.8849 11.2665 57.6348 11.4132 57.376C11.5599 57.1259 11.6893 56.8844 11.7842 56.6773C11.5857 56.5307 11.3614 56.3668 11.1199 56.1857C10.8783 56.0046 10.6282 55.8234 10.3866 55.6337C10.145 55.4439 9.89487 55.2714 9.66194 55.1075C9.42901 54.935 9.22197 54.7884 9.04943 54.6504C8.77337 54.9868 8.50593 55.3577 8.24713 55.7717C7.98832 56.1857 7.75539 56.5652 7.55697 56.9275C7.49659 57.031 7.4362 57.0741 7.36718 57.0741C7.33268 57.0741 7.27229 57.0482 7.18602 56.9965C7.10838 56.9447 7.01348 56.8844 6.91858 56.8067C6.54763 56.5221 6.15942 56.2288 5.76258 55.9356C5.36574 55.6337 4.96028 55.3318 4.55481 55.0213C4.41678 55.1938 4.27012 55.4008 4.10621 55.6337C3.9423 55.8666 3.77839 56.1167 3.62311 56.3755C3.4592 56.6342 3.30391 56.893 3.15725 57.1517C3.0106 57.4105 2.88119 57.6434 2.76904 57.8504C2.96746 57.997 3.19176 58.1609 3.43331 58.3334C3.67487 58.5059 3.92505 58.687 4.1666 58.8682" fill="#ffffff"/>
<path d="M76.0461 61.1804C77.9182 60.4558 79.9196 59.7744 82.0591 59.1448L82.8614 57.0574L82.7147 56.9453C80.7392 57.5405 78.8326 58.1615 76.9865 58.817C75.1403 59.4725 73.4494 60.1971 71.9052 61.0079C71.7413 61.0941 71.5946 61.2321 71.448 61.4219C71.3013 61.6116 71.1719 61.8186 71.0425 62.0429C70.9217 62.2758 70.8096 62.5087 70.7147 62.7415C70.6198 62.9744 70.5508 63.1987 70.499 63.3971L70.6457 63.5092C72.3711 62.6898 74.1741 61.9135 76.0375 61.189" fill="#ffffff"/>
<path d="M78.5048 81.1475C78.2632 80.9578 78.0217 80.7852 77.7801 80.6041C77.5386 80.4316 77.3143 80.2677 77.1158 80.1211C76.9778 80.2936 76.8225 80.5006 76.6586 80.7335C76.4947 80.9664 76.3222 81.2165 76.1669 81.4666C76.003 81.7168 75.8563 81.9755 75.7097 82.2343C75.563 82.4931 75.4422 82.7259 75.3301 82.933C75.7442 83.2435 76.1928 83.5712 76.6845 83.9162C77.1762 84.2613 77.6335 84.5976 78.0734 84.9254C78.4185 84.4941 78.755 84.0284 79.0742 83.5454C79.3934 83.0623 79.6522 82.5966 79.8678 82.148C79.678 82.01 79.471 81.8548 79.2381 81.6823C79.0051 81.5098 78.7636 81.3286 78.522 81.1389" fill="#ffffff"/>
<path d="M84.656 74.2045C85.234 74.3252 85.8207 74.4029 86.4159 74.4546C86.7092 73.9802 86.9767 73.5058 87.2096 73.0401C87.4425 72.5657 87.6064 72.0913 87.7186 71.6083L87.5719 71.4185C86.761 71.4185 85.9846 71.3926 85.234 71.3409C84.4835 71.2891 83.7243 71.2029 82.9566 71.0735C82.1888 70.9441 81.4037 70.763 80.5755 70.5387C79.756 70.3145 78.876 70.0298 77.9529 69.6848C77.28 69.4519 76.6589 69.2104 76.0809 68.9775C75.5029 68.7446 74.9422 68.529 74.4073 68.3393C73.8638 68.1495 73.3462 67.9942 72.8372 67.8735C72.3282 67.7527 71.8106 67.6924 71.293 67.6924C70.8875 67.6924 70.4562 67.7786 70.0076 67.9511C69.559 68.1236 69.1708 68.3393 68.8343 68.6066C68.5496 69.0293 68.2822 69.495 68.0234 70.0126C67.7646 70.5301 67.5748 70.9872 67.4367 71.4012L67.6783 71.6083C68.3512 71.4357 69.0068 71.2805 69.6452 71.1597C70.2836 71.039 70.9048 70.9441 71.5173 70.8837C71.9745 70.9182 72.4662 71.0131 72.9838 71.1511C73.5015 71.2977 74.0277 71.4616 74.5798 71.6428C75.1233 71.8325 75.6841 72.0309 76.2534 72.2465C76.8228 72.4622 77.4008 72.6692 77.9874 72.8503V72.9797C76.8401 73.2557 75.8135 73.5662 74.899 73.9112C73.9846 74.2562 73.0787 74.5926 72.1902 74.9118C71.293 75.2309 70.3613 75.4983 69.3778 75.7139C68.3943 75.9295 67.2728 76.0417 66.0047 76.0417C65.4612 76.0417 64.9781 76.0072 64.564 75.9468C64.1499 75.8864 63.7789 75.7915 63.4425 75.6794C63.1147 75.5587 62.8127 75.412 62.5367 75.2309C62.2606 75.0498 61.9932 74.8428 61.7344 74.6099C60.9148 73.894 60.2937 73.2212 59.8796 72.6088C59.4655 71.9964 59.1377 71.4616 58.9134 71.0217C58.6804 70.5818 58.482 70.2368 58.3095 69.9867C58.1369 69.7366 57.8781 69.6158 57.5417 69.6158C57.2915 69.6158 57.0154 69.7021 56.7049 69.8746C56.3943 70.0471 56.0837 70.2972 55.7818 70.6163C55.4799 70.9355 55.1865 71.3322 54.9191 71.798C54.643 72.2638 54.4187 72.7899 54.229 73.3764C53.8666 73.9888 53.4612 74.4977 52.9953 74.9204C52.5208 75.3171 51.986 75.6018 51.3734 75.7743C50.7696 75.9468 50.019 76.0331 49.1391 76.0331H16.9003C16.2878 76.0331 15.7616 75.9727 15.3044 75.8605C14.8471 75.7484 14.4589 75.5328 14.1225 75.2395C13.786 74.9463 13.5013 74.5409 13.2684 74.032C13.0355 73.5231 12.8198 72.8762 12.6386 72.0913C12.2332 70.349 11.8536 68.598 11.5172 66.8298C11.1807 65.0616 10.9219 63.3021 10.7321 61.5684H10.5423C10.3698 61.991 10.18 62.4568 9.96431 62.9743C9.75726 63.4918 9.5761 64.0611 9.44669 64.6821L9.5761 66.2088L7.91973 67.1403C7.41074 67.425 6.89313 67.7268 6.35826 68.0374C5.82339 68.3479 5.32303 68.6498 4.86581 68.943C4.40858 69.2363 4.00312 69.5037 3.66667 69.7538C3.33022 70.0039 3.09729 70.2023 2.98514 70.349C2.82123 70.5473 2.64869 70.7975 2.45027 71.1166C2.26048 71.4271 2.07932 71.7463 1.90678 72.0826C1.73424 72.419 1.59621 72.7382 1.48406 73.0401C1.37191 73.3419 1.31152 73.5835 1.31152 73.756C1.31152 73.9543 1.38917 74.1614 1.55308 74.3684C1.71699 74.5754 2.03618 74.7651 2.51929 74.9376C3.0024 75.1015 3.68392 75.2481 4.57249 75.3603C5.45244 75.4724 6.6257 75.5242 8.07502 75.5242C8.33382 75.4465 8.584 75.3171 8.81693 75.1101C9.04986 74.9118 9.27416 74.6616 9.4812 74.377C9.68825 74.0837 9.86941 73.7646 10.042 73.4196C10.2059 73.0746 10.3611 72.7123 10.4992 72.3414H10.6631C10.9391 73.7905 11.2411 74.9721 11.5862 75.8692C11.9312 76.7662 12.3281 77.4649 12.7939 77.9565C13.2598 78.4481 13.7947 78.7759 14.3985 78.957C15.0024 79.1295 15.7098 79.2158 16.5121 79.2158H48.7336C49.2081 79.2158 49.6653 79.1899 50.1053 79.1295C50.5453 79.0692 50.9766 78.9484 51.3993 78.7587C51.822 78.5689 52.2275 78.2843 52.6243 77.9134C53.0126 77.5425 53.4008 77.0422 53.7717 76.4212C54.2203 76.8352 54.6603 77.2147 55.1003 77.5597C55.5402 77.9047 56.0061 78.2239 56.4892 78.5085C56.9723 78.7932 57.4986 79.0519 58.0766 79.2762C58.6459 79.5004 59.3016 79.6902 60.0349 79.8541C60.2074 79.8541 60.3713 79.7764 60.5266 79.6298C60.6819 79.4832 60.8285 79.3021 60.9579 79.0864C61.0873 78.8794 61.1995 78.6552 61.303 78.4136C61.3979 78.1808 61.4842 77.9651 61.5446 77.7754C61.881 78.0255 62.1916 78.2325 62.4763 78.4136C62.761 78.5862 63.0629 78.7328 63.3735 78.8622C63.684 78.9829 64.0119 79.0778 64.3742 79.1295C64.7279 79.1899 65.142 79.2158 65.6165 79.2158C66.7207 79.2158 67.7387 79.1209 68.6704 78.9398C69.6021 78.75 70.482 78.5085 71.3188 78.198C72.147 77.8875 72.958 77.5339 73.743 77.1285C74.5281 76.7231 75.3217 76.3091 76.124 75.8692C76.633 75.5932 77.1765 75.3516 77.7631 75.1274C78.3498 74.9031 78.9364 74.7134 79.523 74.5495C80.1097 74.3856 80.6877 74.2649 81.2484 74.1786C81.8092 74.0924 82.3095 74.0492 82.7581 74.0492C83.4397 74.0492 84.0694 74.1096 84.6474 74.2217M9.81765 71.6945C9.61923 71.8843 9.41219 72.0223 9.20514 72.1258C8.99809 72.2207 8.77379 72.2897 8.5495 72.3242C8.3252 72.3587 8.09227 72.3673 7.84209 72.3673C7.63504 72.3673 7.37624 72.35 7.06567 72.3069C6.76373 72.2724 6.44453 72.2207 6.12534 72.1517C5.79751 72.0826 5.47832 72.0136 5.16775 71.936C4.84855 71.8584 4.56387 71.7894 4.32231 71.7118C4.43446 71.4875 4.65014 71.246 4.97796 70.9959C5.29715 70.7371 5.67674 70.4697 6.10808 70.1851C6.53943 69.9004 6.98803 69.6072 7.44525 69.3139C7.91111 69.012 8.34245 68.7015 8.73929 68.3824C8.91183 68.2702 9.08436 68.1064 9.2569 67.8821C9.42944 67.6578 9.5761 67.4595 9.68825 67.287H9.78314C9.81765 67.563 9.86078 67.8562 9.91255 68.184C9.96431 68.5118 10.0161 68.8309 10.0678 69.1587C10.1196 69.4864 10.18 69.8056 10.2404 70.1161C10.3008 70.4266 10.3611 70.7112 10.4129 70.97C10.2145 71.2719 10.0161 71.5134 9.81765 71.6945ZM58.8098 75.7743C58.551 75.688 58.2663 75.5759 57.9558 75.4293C57.6452 75.2913 57.3346 75.1188 57.0327 74.9376C56.7308 74.7479 56.4461 74.5581 56.1786 74.3511C55.9112 74.1441 55.6869 73.9371 55.4971 73.7301C55.5747 73.4282 55.6869 73.1694 55.8508 72.9366C56.0147 72.7037 56.1873 72.5139 56.3684 72.3673C56.5582 72.2207 56.7308 72.0999 56.9119 72.0223C57.0845 71.9446 57.2225 71.9015 57.3174 71.9015C57.4295 72.4708 57.628 73.1004 57.9126 73.7905C58.1973 74.4805 58.5252 75.1015 58.9047 75.6622L58.8098 75.7743Z" fill="#ffffff"/>
<path d="M97.0181 53.7274C97.1561 53.8741 97.3114 53.9689 97.484 54.0207C97.6565 54.0724 97.829 54.0983 98.0016 54.0983C98.3725 54.0983 98.7003 54.0379 98.9764 53.9086C99.2525 53.7878 99.494 53.6239 99.7011 53.4342C99.9081 53.2444 100.081 53.0374 100.219 52.8218C100.365 52.6061 100.486 52.3991 100.598 52.218C100.736 52.3215 100.926 52.4336 101.176 52.5716C101.426 52.7096 101.737 52.7786 102.108 52.7786C102.703 52.7786 103.195 52.5889 103.592 52.2007C103.98 51.8126 104.291 51.3382 104.524 50.7603C104.756 50.1824 104.92 49.5614 105.015 48.8972C105.119 48.2331 105.162 47.6207 105.162 47.0601L105.032 46.9824L104.23 47.3706C104.196 47.7328 104.127 48.1037 104.032 48.5005C103.937 48.8886 103.807 49.2595 103.652 49.5873C103.488 49.9237 103.298 50.1997 103.083 50.4153C102.867 50.6309 102.617 50.7431 102.35 50.7431C102.142 50.7431 101.953 50.7086 101.78 50.6396C101.616 50.5706 101.478 50.5016 101.383 50.4239C101.444 50.191 101.487 49.915 101.513 49.5959C101.539 49.2768 101.547 48.9576 101.547 48.6385H100.728C100.65 48.8972 100.555 49.2164 100.443 49.5786C100.322 49.9409 100.176 50.2945 100.003 50.6396C99.8305 50.9846 99.6234 51.2692 99.3819 51.5021C99.1403 51.735 98.8556 51.8557 98.5364 51.8557C98.2172 51.8557 97.9929 51.7695 97.8722 51.597C97.7514 51.4245 97.691 51.2088 97.691 50.9415C97.691 50.7603 97.7169 50.5274 97.7773 50.2514C97.8377 49.9754 97.8894 49.7425 97.9325 49.5441L97.3891 49.2681C97.3028 49.3803 97.2079 49.5441 97.113 49.7598C97.0181 49.9754 96.9232 50.2169 96.8456 50.4757C96.7679 50.7344 96.6989 51.0105 96.6385 51.2865C96.5781 51.5625 96.5522 51.8212 96.5522 52.0627C96.5522 52.494 96.5954 52.8477 96.673 53.115C96.7507 53.3824 96.8628 53.5894 97.0008 53.7274" fill="#ffffff"/>
<path d="M100.598 46.5774C101.841 46.0771 103.169 45.6027 104.584 45.1714L105.498 42.8253L105.352 42.7305C104.075 43.1272 102.833 43.5413 101.642 43.9811C100.452 44.4124 99.3561 44.9041 98.364 45.4561C98.2001 45.5423 98.0448 45.689 97.8896 45.9046C97.7343 46.1116 97.5876 46.3531 97.4582 46.6119C97.3288 46.8706 97.208 47.138 97.1045 47.3968C97.001 47.6555 96.9233 47.8884 96.8716 48.0868L97.0182 48.1989C98.157 47.6297 99.3561 47.0863 100.598 46.586" fill="#ffffff"/>
<path d="M104.247 57.5232C103.997 57.3334 103.756 57.1609 103.523 56.9884C103.29 56.8245 103.083 56.6693 102.91 56.5312C102.634 56.8676 102.367 57.2385 102.108 57.6525C101.849 58.0666 101.616 58.4461 101.418 58.8083C101.357 58.9118 101.297 58.955 101.228 58.955C101.194 58.955 101.133 58.9291 101.047 58.8773C100.969 58.8256 100.874 58.7652 100.779 58.6876C100.408 58.4029 100.02 58.1097 99.6234 57.8078C99.2266 57.5059 98.8211 57.204 98.4157 56.8935C98.2776 57.066 98.131 57.273 97.967 57.5059C97.8031 57.7388 97.6479 57.9889 97.4839 58.2477C97.32 58.5065 97.1647 58.7652 97.0181 59.024C96.8714 59.2827 96.742 59.5156 96.6299 59.7226C96.8283 59.8693 97.0526 60.0331 97.2942 60.2056C97.5357 60.3782 97.7859 60.5593 98.0274 60.7404C98.2776 60.9215 98.5192 61.0941 98.7435 61.2666C98.9764 61.4391 99.1834 61.5943 99.3646 61.7151C99.6752 61.3442 99.9599 60.9474 100.21 60.542C100.469 60.128 100.676 59.7744 100.848 59.4811C100.9 59.3949 100.961 59.3517 101.038 59.3517C101.09 59.3517 101.15 59.3862 101.237 59.4466C101.314 59.507 101.409 59.5674 101.504 59.6364C101.892 59.921 102.306 60.2229 102.746 60.542C103.186 60.8612 103.557 61.1199 103.859 61.3356C103.997 61.1889 104.144 60.9906 104.316 60.7577C104.48 60.5248 104.653 60.2746 104.808 60.0245C104.972 59.7657 105.127 59.5156 105.274 59.2569C105.421 58.9981 105.55 58.7652 105.645 58.5582C105.447 58.4116 105.222 58.2477 104.981 58.0666C104.739 57.8854 104.489 57.7043 104.247 57.5145" fill="#ffffff"/>
<path d="M123.123 68.4931C123.02 67.6995 122.908 66.837 122.787 65.9141C122.666 64.9912 122.537 64.051 122.407 63.0936C122.278 62.1362 122.157 61.196 122.036 60.2645C121.916 59.333 121.812 58.4704 121.726 57.6769C121.89 57.6165 122.036 57.4699 122.183 57.2456C122.321 57.0214 122.459 56.7454 122.58 56.4176C122.701 56.0898 122.813 55.7276 122.916 55.3481C123.011 54.9599 123.106 54.5804 123.175 54.2095C122.968 54.0197 122.726 53.8386 122.468 53.6489C122.209 53.4591 121.967 53.2693 121.743 53.071C121.519 52.8726 121.329 52.6569 121.165 52.4154C121.001 52.1826 120.915 51.9152 120.906 51.6305H120.604C120.328 52.3464 120.078 52.9761 119.828 53.5109C119.586 54.0456 119.465 54.5114 119.465 54.9082C119.465 55.1324 119.509 55.3308 119.586 55.5119C119.664 55.6931 119.793 55.8914 119.966 56.0985C119.94 56.2451 119.923 56.4003 119.897 56.5642C119.88 56.7281 119.871 56.892 119.871 57.0645C119.871 57.4526 119.905 57.9874 119.983 58.6774C120.061 59.3675 120.156 60.1437 120.276 61.0149C120.397 61.8861 120.527 62.8176 120.673 63.8095C120.82 64.8014 120.975 65.8106 121.139 66.8197C121.303 67.8289 121.458 68.8208 121.605 69.7782C121.752 70.7443 121.89 71.6241 122.01 72.4348C122.036 72.7195 122.054 73.03 122.054 73.3578C122.054 73.6855 122.062 73.996 122.062 74.2807C121.752 74.8758 121.294 75.3157 120.682 75.6003C120.078 75.885 119.233 76.023 118.163 76.0316C117.162 76.0316 116.334 75.609 115.678 74.7723C115.023 73.9357 114.6 72.7799 114.402 71.2963C114.194 69.6575 113.979 67.9842 113.763 66.285C113.556 64.5858 113.349 62.8952 113.151 61.2047C112.952 59.5227 112.771 57.8666 112.598 56.2451C112.435 54.6235 112.279 53.0796 112.141 51.6133H111.934C111.796 51.9238 111.658 52.2516 111.503 52.5879C111.356 52.933 111.218 53.278 111.089 53.6402C110.968 54.0025 110.856 54.3561 110.77 54.7184C110.683 55.0807 110.632 55.4343 110.623 55.7793C110.675 56.3227 110.735 56.961 110.804 57.6769C110.873 58.4014 110.951 59.1604 111.037 59.9626C111.123 60.7648 111.218 61.5928 111.313 62.4381C111.408 63.292 111.503 64.1286 111.589 64.9567C111.675 65.7847 111.762 66.5696 111.848 67.32C111.934 68.0704 112.012 68.7518 112.072 69.347C112.133 69.9507 112.184 70.4596 112.219 70.8823C112.253 71.3049 112.279 71.5896 112.279 71.7362C112.279 71.9518 112.279 72.1761 112.262 72.4176C112.245 72.6591 112.236 72.892 112.219 73.1249C112.202 73.3578 112.176 73.5648 112.141 73.7631C112.107 73.9529 112.072 74.1082 112.02 74.2203C111.736 74.8241 111.304 75.2812 110.726 75.5745C110.148 75.8677 109.484 76.0144 108.716 76.0144C108.311 76.0144 107.888 75.9626 107.465 75.8591C107.034 75.7556 106.62 75.5313 106.206 75.1777C105.792 74.8327 105.404 74.3238 105.033 73.6596C104.662 72.9955 104.325 72.1071 104.023 71.003C103.773 70.0715 103.523 69.1572 103.264 68.2602C103.014 67.3631 102.781 66.4575 102.583 65.5432H102.281C102.108 65.9572 101.936 66.3885 101.772 66.8543C101.608 67.32 101.461 67.7858 101.349 68.2429C101.323 68.3809 101.297 68.5103 101.263 68.6397C101.228 68.7691 101.22 68.8985 101.22 69.0192C101.133 69.3556 100.978 69.6747 100.754 69.968C100.529 70.2699 100.262 70.5286 99.9514 70.7529C99.6409 70.9772 99.2958 71.1497 98.9248 71.279C98.5539 71.3998 98.1743 71.4688 97.7861 71.4688C97.3461 71.4688 96.9407 71.4343 96.5438 71.3567C96.1556 71.2791 95.776 71.0893 95.4137 70.7788H95.1204L93.9989 74.2634C94.3094 74.3755 94.6028 74.5567 94.8875 74.8154C95.1635 75.0742 95.4051 75.3502 95.6035 75.6435C95.8019 75.9454 95.9572 76.2386 96.078 76.5405C96.1987 76.8424 96.2505 77.0925 96.2505 77.3082C96.2505 77.6359 96.1125 78.0758 95.845 78.6278C95.5776 79.1799 95.1894 79.7923 94.7063 80.4392C94.2232 81.0861 93.6452 81.7416 92.9723 82.3971C92.2994 83.0526 91.5747 83.6478 90.781 84.1825C89.996 84.7173 89.1592 85.1572 88.2879 85.4936C87.4079 85.8386 86.5194 86.0025 85.6135 86.0025C85.3547 86.0025 85.0959 85.9852 84.8371 85.9594C84.5783 85.9335 84.3281 85.8817 84.0607 85.83C83.8019 85.7696 83.5258 85.7092 83.2411 85.6316C82.9564 85.554 82.6372 85.4677 82.2922 85.3728L82.0679 85.899C83.3878 86.6408 84.6214 87.1928 85.7774 87.5464C86.9334 87.9001 88.0291 88.0726 89.0557 88.0726C89.7976 88.0726 90.5222 87.9001 91.2296 87.5464C91.9284 87.1928 92.5927 86.7098 93.2138 86.1146C93.835 85.5108 94.4043 84.8122 94.9133 84.0273C95.4223 83.2338 95.8623 82.4057 96.2246 81.5432C96.587 80.672 96.8803 79.7923 97.0787 78.9038C97.2857 78.0154 97.3893 77.1702 97.3893 76.3594C97.3893 76.1006 97.3893 75.8332 97.3806 75.5658C97.3806 75.2985 97.3634 75.0311 97.3375 74.7551H97.95C98.0708 74.7551 98.2261 74.7378 98.4072 74.7119C98.5884 74.6774 98.7782 74.6343 98.9852 74.5739C99.1923 74.5135 99.3993 74.4273 99.5977 74.3324C99.7962 74.2375 99.986 74.1082 100.15 73.9615C100.383 73.7545 100.581 73.5044 100.736 73.237C100.892 72.961 101.021 72.685 101.125 72.409C101.228 72.133 101.314 71.8569 101.384 71.5809C101.453 71.3049 101.513 71.0634 101.582 70.8564H101.711L102.565 73.8149C102.876 74.9362 103.23 75.8419 103.635 76.5491C104.041 77.2478 104.481 77.7998 104.972 78.1879C105.455 78.5761 105.973 78.8435 106.525 78.9901C107.077 79.1367 107.673 79.2057 108.302 79.2057C109.01 79.2057 109.657 79.085 110.252 78.8348C110.839 78.5847 111.382 78.1793 111.865 77.6273C112.141 77.265 112.366 76.8683 112.538 76.4284C112.711 75.9885 112.866 75.5572 113.004 75.1346H113.194C113.504 76.5233 114.056 77.5583 114.85 78.2224C115.644 78.8866 116.61 79.223 117.74 79.223C118.775 79.223 119.621 79.0764 120.302 78.7917C120.975 78.5071 121.57 78.0586 122.079 77.4548C122.45 76.7993 122.77 76.0144 123.02 75.1001C123.27 74.1858 123.399 73.1249 123.399 71.9259C123.399 71.6413 123.365 71.2014 123.304 70.6063C123.244 70.0111 123.158 69.3125 123.063 68.5189" fill="#ffffff"/>
<path d="M146.536 56.5133C146.398 56.3408 146.234 56.22 146.036 56.1596L145.631 56.013C145.639 55.9268 145.665 55.8146 145.708 55.668C145.743 55.5214 145.777 55.3661 145.812 55.1936C145.846 55.0211 145.872 54.8486 145.898 54.6675C145.924 54.4949 145.933 54.3311 145.933 54.1844C145.933 53.8394 145.907 53.503 145.846 53.1753C145.786 52.8475 145.7 52.5715 145.579 52.3214C145.458 52.0712 145.294 51.8728 145.104 51.7262C144.915 51.5796 144.682 51.502 144.406 51.502C144.129 51.502 143.802 51.6055 143.422 51.8038C143.034 52.0022 142.672 52.2696 142.309 52.606C141.956 52.9424 141.654 53.3305 141.395 53.7618C141.136 54.1931 141.015 54.6588 141.015 55.1418C141.015 55.4437 141.084 55.7025 141.231 55.9354C141.378 56.1683 141.559 56.3666 141.774 56.5392C141.99 56.7117 142.232 56.8583 142.49 56.979C142.749 57.0998 142.999 57.1947 143.232 57.2723C142.801 57.5569 142.378 57.8157 141.973 58.0313C141.567 58.2556 141.162 58.4626 140.739 58.6524C140.325 58.8421 139.894 59.0232 139.445 59.1958C138.996 59.3596 138.522 59.5321 138.03 59.7046L138.177 60.5068C139.92 60.3861 141.343 60.0669 142.465 59.5753C143.586 59.0836 144.397 58.5144 144.906 57.8847C145.191 57.971 145.458 58.0831 145.708 58.2125C145.958 58.3418 146.148 58.4885 146.286 58.6524H146.398L146.83 57.048C146.778 56.8755 146.683 56.703 146.545 56.5219M144.414 55.1505C144.38 55.3316 144.345 55.4696 144.311 55.5731C143.551 55.3402 143.043 55.0987 142.784 54.8572C142.525 54.6157 142.395 54.3828 142.395 54.1586C142.395 54.0723 142.439 53.9774 142.525 53.8653C142.611 53.7618 142.723 53.6583 142.861 53.5634C142.999 53.4685 143.146 53.3909 143.301 53.3219C143.457 53.2529 143.612 53.2184 143.759 53.2184C143.991 53.2184 144.173 53.3737 144.293 53.6928C144.414 54.0119 144.466 54.3569 144.466 54.7278C144.466 54.8313 144.449 54.9693 144.423 55.1505" fill="#ffffff"/>
<path d="M139.169 62.2579L138.626 61.9818C138.539 62.094 138.445 62.2579 138.341 62.4735C138.246 62.6891 138.151 62.9306 138.074 63.1894C137.996 63.4482 137.927 63.7155 137.867 64.0002C137.806 64.2762 137.78 64.5349 137.78 64.7764C137.78 65.2077 137.823 65.5614 137.901 65.8287C137.979 66.0961 138.091 66.3031 138.229 66.4411C138.367 66.5878 138.522 66.6827 138.695 66.7258C138.867 66.7775 139.04 66.8034 139.212 66.8034C139.583 66.8034 139.911 66.743 140.187 66.6137C140.463 66.4843 140.705 66.329 140.912 66.1393C141.119 65.9495 141.291 65.7425 141.429 65.5269C141.576 65.3112 141.697 65.1042 141.809 64.9231C141.947 65.018 142.137 65.1387 142.387 65.2767C142.637 65.4147 142.948 65.4837 143.319 65.4837C143.914 65.4837 144.406 65.294 144.803 64.9058C145.191 64.5177 145.501 64.0433 145.734 63.4654C145.967 62.8875 146.131 62.2665 146.226 61.6023C146.321 60.9382 146.373 60.3258 146.373 59.7651L146.243 59.6875L145.441 60.0756C145.406 60.4379 145.337 60.8088 145.243 61.2056C145.148 61.5937 145.018 61.9646 144.863 62.2924C144.699 62.6287 144.509 62.9048 144.294 63.1204C144.078 63.336 143.828 63.4481 143.56 63.4481C143.353 63.4481 143.155 63.4137 142.991 63.3446C142.818 63.2756 142.689 63.2066 142.585 63.129C142.646 62.8961 142.689 62.6201 142.715 62.301C142.741 61.9818 142.749 61.6627 142.749 61.3436H141.93C141.852 61.6023 141.757 61.9215 141.636 62.2837C141.516 62.646 141.378 63.0083 141.197 63.3446C141.024 63.6897 140.817 63.9743 140.575 64.2072C140.334 64.4401 140.049 64.5608 139.73 64.5608C139.411 64.5608 139.186 64.4746 139.066 64.3021C138.945 64.1296 138.893 63.9139 138.893 63.6465C138.893 63.4568 138.919 63.2325 138.979 62.9565C139.04 62.6805 139.092 62.4476 139.135 62.2492" fill="#ffffff"/>
<path d="M148.693 92.404C148.443 92.2143 148.202 92.0418 147.969 91.8693C147.736 91.7054 147.529 91.5501 147.356 91.4121C147.08 91.7485 146.813 92.1194 146.554 92.5334C146.295 92.9474 146.062 93.3269 145.864 93.6892C145.803 93.7927 145.743 93.8358 145.674 93.8358C145.639 93.8358 145.579 93.8099 145.493 93.7582C145.415 93.7064 145.32 93.6461 145.225 93.5684C144.854 93.2838 144.466 92.9905 144.069 92.6887C143.672 92.3868 143.267 92.0849 142.861 91.7744C142.723 91.9469 142.577 92.1539 142.413 92.3868C142.249 92.6197 142.094 92.8698 141.93 93.1285C141.766 93.3873 141.611 93.6461 141.464 93.9048C141.317 94.1636 141.188 94.3965 141.076 94.6035C141.274 94.7501 141.498 94.914 141.74 95.0865C141.982 95.259 142.232 95.4401 142.473 95.6213C142.723 95.8024 142.965 95.9749 143.189 96.1474C143.422 96.3199 143.629 96.4752 143.81 96.5959C144.121 96.225 144.406 95.8283 144.656 95.4229C144.915 95.0089 145.122 94.6552 145.294 94.362C145.346 94.2757 145.406 94.2326 145.484 94.2326C145.536 94.2326 145.596 94.2671 145.682 94.3275C145.76 94.3878 145.855 94.4482 145.95 94.5172C146.338 94.8019 146.752 95.1037 147.192 95.4229C147.632 95.742 148.003 96.0008 148.305 96.2164C148.443 96.0698 148.59 95.8714 148.762 95.6385C148.926 95.4056 149.099 95.1555 149.254 94.9054C149.418 94.6466 149.573 94.3965 149.72 94.1377C149.867 93.879 149.996 93.6461 150.091 93.4391C149.892 93.2924 149.668 93.1286 149.427 92.9474C149.185 92.7663 148.935 92.5852 148.693 92.3954" fill="#ffffff"/>
<path d="M156.225 95.0858C155.034 95.5171 153.939 96.0087 152.947 96.5607C152.783 96.647 152.627 96.7936 152.472 97.0092C152.317 97.2163 152.17 97.4578 152.041 97.7165C151.911 97.9753 151.791 98.234 151.687 98.5014C151.584 98.7688 151.506 98.9931 151.454 99.1915L151.601 99.3036C152.748 98.7343 153.939 98.1909 155.181 97.6906C156.423 97.1904 157.752 96.716 159.167 96.2847L160.081 93.9386L159.934 93.8438C158.658 94.2405 157.415 94.6545 156.225 95.0944" fill="#ffffff"/>
<path d="M156.397 89.4795C156.156 89.2898 155.914 89.1173 155.673 88.9361C155.431 88.7636 155.207 88.5998 155.008 88.4531C154.87 88.6256 154.724 88.8326 154.551 89.0655C154.387 89.2984 154.215 89.5485 154.059 89.7987C153.896 90.0488 153.749 90.3076 153.602 90.5663C153.456 90.8251 153.335 91.058 153.223 91.265C153.637 91.5755 154.085 91.9033 154.577 92.2569C155.069 92.6019 155.526 92.9383 155.966 93.2661C156.311 92.8348 156.648 92.369 156.967 91.886C157.286 91.403 157.545 90.9372 157.76 90.4887C157.571 90.3507 157.364 90.1954 157.131 90.0229C156.898 89.8504 156.656 89.6693 156.415 89.4795" fill="#ffffff"/>
<path d="M147.606 88.3926C149.03 88.0649 150.358 87.6509 151.592 87.1247C152.826 86.6072 153.947 86.012 154.956 85.3565C155.966 84.701 156.803 84.0368 157.476 83.3813C157.683 82.9242 157.89 82.4325 158.079 81.9064C158.269 81.3889 158.416 80.8541 158.519 80.3021C158.554 80.1296 158.58 79.9571 158.597 79.7932C158.614 79.6293 158.614 79.474 158.614 79.336C158.614 79.1031 158.554 78.8875 158.442 78.7064C158.33 78.5166 158.166 78.3355 157.959 78.163C157.501 77.8266 156.932 77.5678 156.259 77.3695C155.586 77.1797 154.879 76.9727 154.137 76.7657C154.361 76.6536 154.586 76.5414 154.818 76.4293C155.051 76.3172 155.267 76.1964 155.483 76.0757C155.802 75.5323 156.052 74.9457 156.207 74.3161C156.371 73.6864 156.483 73.0395 156.561 72.3668C156.561 71.6681 156.501 70.9608 156.371 70.2277C156.251 69.4945 156.052 68.7786 155.785 68.0627C155.517 67.3554 155.164 66.6654 154.732 66.0013C154.301 65.3371 153.775 64.7247 153.171 64.1641H153.041C152.852 64.7247 152.696 65.2681 152.558 65.8029C152.42 66.3376 152.317 66.8897 152.239 67.4589C152.61 67.8212 152.972 68.2266 153.309 68.6924C153.654 69.1495 153.956 69.6412 154.232 70.1759C154.508 70.7021 154.741 71.2541 154.939 71.8234C155.138 72.3926 155.276 72.9792 155.345 73.5743C154.499 74.0746 153.619 74.5058 152.696 74.8681C151.773 75.239 150.841 75.5064 149.884 75.6789L149.772 75.7306C149.522 76.2137 149.314 76.6881 149.159 77.1366C148.995 77.5937 148.823 78.1026 148.642 78.6719L148.788 78.8358C149.729 78.9134 150.643 79.0169 151.506 79.1463C152.368 79.2757 153.171 79.4309 153.895 79.6034C154.62 79.7759 155.241 79.9743 155.759 80.1986C156.276 80.4228 156.665 80.673 156.915 80.9403C156.371 81.4665 155.638 81.984 154.724 82.5188C153.809 83.0449 152.791 83.5193 151.661 83.942C150.531 84.3646 149.323 84.7096 148.046 84.977C146.77 85.2444 145.484 85.3738 144.207 85.3738C142.931 85.3738 141.887 85.2358 140.895 84.9684C139.903 84.6924 139.048 84.2956 138.35 83.7781C137.651 83.2606 137.107 82.6137 136.719 81.8374C136.331 81.0697 136.141 80.1813 136.141 79.1721C136.141 78.6633 136.193 78.1457 136.297 77.6282C136.4 77.1021 136.538 76.5845 136.711 76.0757C136.874 75.5581 137.073 75.0579 137.289 74.5748C137.504 74.0918 137.729 73.6261 137.953 73.1948L137.358 72.8757C137.021 73.419 136.693 74.0228 136.366 74.6611C136.046 75.308 135.753 75.9894 135.494 76.7226C135.235 77.4471 135.028 78.2061 134.873 78.9996C134.718 79.7845 134.64 80.5953 134.64 81.432C134.64 82.3118 134.77 83.2002 135.037 84.0886C135.304 84.977 135.77 85.7792 136.426 86.4864C137.082 87.1937 137.961 87.7716 139.066 88.2115C140.161 88.6514 141.55 88.8757 143.233 88.8757C144.734 88.8757 146.2 88.7118 147.624 88.3926" fill="#ffffff"/>
<path d="M197.332 60.386C198.574 59.8857 199.903 59.4113 201.317 58.98L202.232 56.6339L202.085 56.5391C200.808 56.9358 199.566 57.3498 198.376 57.7897C197.185 58.2296 196.09 58.7126 195.097 59.2647C194.934 59.3509 194.778 59.4976 194.623 59.7132C194.468 59.9202 194.321 60.1617 194.192 60.4205C194.062 60.6792 193.941 60.938 193.838 61.2054C193.734 61.4641 193.657 61.697 193.605 61.8954L193.752 62.0075C194.89 61.4383 196.09 60.8949 197.332 60.3946" fill="#ffffff"/>
<path d="M210.341 68.4934C210.238 67.6999 210.126 66.8373 210.005 65.9144C209.884 64.9915 209.755 64.0513 209.625 63.0939C209.496 62.1365 209.375 61.1964 209.254 60.2648C209.134 59.3333 209.03 58.4708 208.944 57.6772C209.108 57.6168 209.254 57.4702 209.401 57.246C209.539 57.0217 209.677 56.7457 209.798 56.4179C209.919 56.0902 210.031 55.7279 210.134 55.3484C210.229 54.9602 210.324 54.5807 210.393 54.2098C210.186 54.0201 209.944 53.8389 209.686 53.6492C209.427 53.4594 209.185 53.2697 208.961 53.0713C208.737 52.8729 208.547 52.6573 208.383 52.4158C208.219 52.1829 208.133 51.9155 208.124 51.6309H207.831C207.555 52.3468 207.296 52.9764 207.054 53.5112C206.813 54.046 206.692 54.5117 206.692 54.9085C206.692 55.1327 206.735 55.3311 206.813 55.5123C206.891 55.6934 207.02 55.8918 207.193 56.0988C207.167 56.2454 207.149 56.4007 207.124 56.5646C207.106 56.7284 207.098 56.8923 207.098 57.0648C207.098 57.453 207.132 57.9877 207.21 58.6778C207.287 59.3678 207.382 60.1441 207.494 61.0152C207.615 61.8864 207.745 62.8179 207.9 63.8098C208.047 64.8018 208.202 65.8109 208.366 66.8201C208.53 67.8292 208.685 68.8212 208.832 69.7786C208.978 70.7446 209.116 71.6244 209.246 72.4352C209.272 72.7198 209.289 73.0303 209.289 73.3581C209.289 73.6858 209.297 73.9964 209.297 74.281C208.987 74.8761 208.53 75.316 207.917 75.6007C207.305 75.8853 206.468 76.0319 205.381 76.0319C204.898 76.0319 204.423 75.9974 203.966 75.9371C203.509 75.8767 203.077 75.7818 202.681 75.6438C202.284 75.5144 201.921 75.3505 201.594 75.1608C201.266 74.971 200.99 74.7381 200.765 74.4794C201.111 74.3327 201.43 74.1085 201.723 73.8152C202.016 73.522 202.258 73.2115 202.456 72.8751C202.655 72.5387 202.81 72.2109 202.922 71.8831C203.034 71.564 203.095 71.2966 203.095 71.0982C203.095 70.7532 202.931 70.3996 202.603 70.0373C202.275 69.6751 201.852 69.3559 201.335 69.0713C200.817 68.7867 200.248 68.5538 199.609 68.364C198.98 68.1743 198.359 68.088 197.763 68.088C196.927 68.088 196.176 68.2174 195.512 68.4848C194.839 68.7522 194.244 69.0627 193.726 69.4077C193.441 69.9511 193.191 70.5031 192.993 71.0637C192.786 71.6244 192.613 72.1937 192.466 72.7802L192.967 72.9872C193.105 72.8837 193.217 72.8233 193.32 72.7974C193.424 72.7716 193.536 72.7629 193.657 72.7629C193.855 72.7629 194.071 72.8061 194.287 72.8837C194.511 72.9613 194.727 73.0648 194.942 73.1942C195.149 73.315 195.356 73.453 195.555 73.5996C195.753 73.7462 195.934 73.9015 196.098 74.0481C195.814 74.2379 195.477 74.4362 195.098 74.6605C194.718 74.8848 194.295 75.1004 193.821 75.2988C193.346 75.5058 192.829 75.6783 192.268 75.8077C191.699 75.9457 191.095 76.0147 190.448 76.0147H175.592C174.065 76.0147 172.754 75.6783 171.667 75.0141C170.58 74.35 169.838 73.3753 169.441 72.0815H169.2C169.001 72.5904 168.837 73.1511 168.717 73.7721C168.596 74.3845 168.527 75.0487 168.527 75.7559C168.527 76.1441 168.648 76.4805 168.898 76.7823C169.148 77.0842 169.441 77.343 169.778 77.5845C170.123 77.8346 170.468 78.033 170.804 78.1883C171.141 78.3435 171.391 78.4643 171.572 78.5505C171.434 79.0594 171.201 79.6373 170.865 80.2842C170.528 80.9311 170.123 81.5867 169.631 82.2594C169.148 82.9322 168.596 83.5791 167.983 84.2174C167.371 84.847 166.706 85.4163 166.008 85.9079C165.309 86.4082 164.576 86.805 163.808 87.1069C163.049 87.4088 162.264 87.564 161.47 87.564C161.099 87.564 160.702 87.5295 160.288 87.4519C159.874 87.3743 159.365 87.219 158.77 86.9861L158.623 87.5468C159.149 87.8831 159.684 88.1764 160.236 88.4265C160.788 88.6767 161.323 88.8837 161.85 89.0476C162.376 89.2201 162.867 89.3408 163.342 89.4185C163.816 89.4961 164.231 89.5392 164.593 89.5392C165.318 89.5392 165.99 89.384 166.637 89.0821C167.276 88.7802 167.862 88.3575 168.406 87.8314C168.949 87.3053 169.441 86.6842 169.898 85.9856C170.356 85.2869 170.752 84.5365 171.098 83.743C171.443 82.9495 171.745 82.13 172.003 81.2848C172.254 80.4395 172.461 79.6115 172.607 78.8093L172.737 78.7317C172.849 78.8352 172.995 78.9128 173.177 78.9646C173.358 79.0249 173.556 79.0681 173.781 79.0939C174.005 79.1284 174.238 79.1457 174.488 79.1629C174.738 79.1716 174.98 79.1802 175.213 79.1802H190.085C191.448 79.1802 192.803 78.8955 194.149 78.3349C195.486 77.7743 196.788 77.0066 198.039 76.0492C198.488 76.5926 198.954 77.067 199.446 77.4551C199.937 77.8433 200.464 78.171 201.042 78.4212C201.611 78.6713 202.232 78.861 202.888 78.9904C203.543 79.1112 204.259 79.1802 205.027 79.1802C206.062 79.1802 206.908 79.0336 207.589 78.7489C208.262 78.4643 208.858 78.0158 209.367 77.412C209.737 76.7565 210.057 75.9716 210.307 75.0573C210.557 74.143 210.686 73.0821 210.686 71.8831C210.686 71.5985 210.652 71.1586 210.592 70.5635C210.531 69.9683 210.445 69.2697 210.35 68.4761" fill="#ffffff"/>
<path d="M217.018 67.9324C216.872 66.8888 216.717 65.7675 216.544 64.5685C216.371 63.3696 216.199 62.1707 216.044 60.9804C215.88 59.7901 215.733 58.6343 215.604 57.513C215.474 56.3917 215.379 55.3912 215.336 54.4941H215.146C214.862 55.1238 214.586 55.7966 214.318 56.4952C214.051 57.1939 213.896 57.9184 213.844 58.6688C213.844 59.3157 213.896 60.0661 213.999 60.92C214.103 61.7739 214.241 62.6968 214.396 63.6715C214.56 64.6462 214.732 65.664 214.913 66.7249C215.095 67.7858 215.267 68.8467 215.422 69.9076C215.586 70.9685 215.716 72.0122 215.819 73.0386C215.923 74.065 215.975 75.0311 215.975 75.9367C215.975 76.368 215.966 76.8251 215.94 77.2909C215.914 77.7567 215.871 78.1621 215.811 78.5157L216.354 78.6451C216.466 78.4122 216.587 78.1103 216.717 77.7394C216.846 77.3772 216.967 76.9373 217.087 76.437C217.208 75.9367 217.303 75.3675 217.389 74.7292C217.467 74.0995 217.51 73.3923 217.51 72.6246C217.51 72.1761 217.467 71.5464 217.372 70.727C217.277 69.9076 217.165 68.9761 217.018 67.9324Z" fill="#ffffff"/>
</g>
<defs>
<clipPath id="clip0_107_113">
<rect width="359" height="112" fill="white"/>
</clipPath>
</defs>
</svg>
