<svg width="80" height="79" viewBox="0 0 80 79" fill="none" xmlns="http://www.w3.org/2000/svg">
<path id="Vector" d="M40.0459 78.6619C18.376 78.6619 0.683594 60.9968 0.683594 39.3309C0.683594 17.665 18.376 0 40.0459 0C61.7158 0 79.4083 17.665 79.4083 39.3309C79.4083 60.9968 61.7291 78.6619 40.0459 78.6619ZM40.0459 3.62871C20.3714 3.62871 4.31519 19.6721 4.31519 39.3309C4.31519 58.9898 20.3714 75.0332 40.0459 75.0332C59.7204 75.0332 75.7767 58.9898 75.7767 39.3309C75.7767 19.6721 59.7204 3.62871 40.0459 3.62871ZM40.0459 72.5077C39.0482 72.5077 38.2368 71.6969 38.2368 70.7V65.3566C38.2368 64.3597 39.0482 63.5489 40.0459 63.5489C41.0436 63.5489 41.8551 64.3597 41.8551 65.3566V70.7C41.8551 71.6969 41.0436 72.5077 40.0459 72.5077ZM62.2613 63.3495C61.809 63.3495 61.3567 63.1634 60.9975 62.8046L57.193 59.003C56.4613 58.272 56.4613 57.1953 57.193 56.4643C57.9246 55.7332 59.0021 55.7332 59.7338 56.4643L63.5383 60.2658C64.2699 60.9968 64.2699 62.0735 63.5383 62.8046C63.1791 63.1634 62.7268 63.3495 62.2745 63.3495H62.2613ZM17.8173 63.3495C17.365 63.3495 16.9128 63.1634 16.5536 62.8046C15.8219 62.0735 15.8219 60.9968 16.5536 60.2658L20.3581 56.4643C21.0898 55.7332 22.1673 55.7332 22.8989 56.4643C23.6305 57.1953 23.6305 58.272 22.8989 59.003L19.0944 62.8046C18.7352 63.1634 18.2829 63.3495 17.8306 63.3495H17.8173ZM48.8389 52.1178C48.3866 52.1178 47.9344 51.9317 47.5752 51.5728L38.7822 42.7868C38.423 42.428 38.2368 41.976 38.2368 41.5241V20.4032C38.2368 19.4063 39.0482 18.5955 40.0459 18.5955C41.0436 18.5955 41.8551 19.4063 41.8551 20.4032V40.7L50.1027 48.941C50.8343 49.6721 50.8343 50.7487 50.1027 51.4798C49.7435 51.9317 49.2912 52.1178 48.8389 52.1178ZM71.4267 41.1519H66.0791C65.0814 41.1519 64.2699 40.3411 64.2699 39.3442C64.2699 38.3473 65.0814 37.5365 66.0791 37.5365H71.4267C72.4244 37.5365 73.2359 38.3473 73.2359 39.3442C73.2359 40.3411 72.4244 41.1519 71.4267 41.1519ZM14.0128 41.1519H8.66514C7.66745 41.1519 6.85599 40.3411 6.85599 39.3442C6.85599 38.3473 7.66745 37.5365 8.66514 37.5365H14.0128C15.0105 37.5365 15.8219 38.3473 15.8219 39.3442C15.8219 40.3411 15.0105 41.1519 14.0128 41.1519ZM58.4567 22.7558C58.0044 22.7558 57.5521 22.5698 57.193 22.2109C56.4613 21.4798 56.4613 20.4032 57.193 19.6721L60.9975 15.8706C61.7291 15.1396 62.8066 15.1396 63.5383 15.8706C64.2699 16.6017 64.2699 17.6783 63.5383 18.4094L59.7338 22.2109C59.4677 22.5698 58.9223 22.7558 58.47 22.7558H58.4567ZM21.6352 22.7558C21.1829 22.7558 20.7306 22.5698 20.3714 22.2109L16.5669 18.4094C15.8352 17.6783 15.8352 16.6017 16.5669 15.8706C17.2985 15.1396 18.376 15.1396 19.1077 15.8706L22.9122 19.6721C23.6439 20.4032 23.6439 21.4798 22.9122 22.2109C22.553 22.5698 22.1008 22.7558 21.6485 22.7558H21.6352ZM40.0459 15.1396C39.0482 15.1396 38.2368 14.3287 38.2368 13.3318V7.98847C38.2368 6.99158 39.0482 6.18077 40.0459 6.18077C41.0436 6.18077 41.8551 6.99158 41.8551 7.98847V13.3318C41.8551 14.3287 41.0436 15.1396 40.0459 15.1396Z" fill="#273D4C"/>
</svg>
