<svg width="46" height="69" viewBox="0 0 46 69" fill="none" xmlns="http://www.w3.org/2000/svg">
<g id="Layer_1" clip-path="url(#clip0_201_1272)">
<path id="Vector" d="M23.1375 5.39453C22.3946 5.39453 21.7835 5.99131 21.7715 6.73132C21.7715 7.47133 22.3706 8.08005 23.1135 8.09199C23.8564 8.09199 24.4675 7.49521 24.4795 6.7552C24.4795 6.01518 23.8804 5.40647 23.1375 5.39453Z" fill="#203746"/>
<path id="Vector_2" d="M23.0655 13.4758C17.8412 13.44 13.5635 17.6414 13.5276 22.8334C13.4916 28.0373 17.7094 32.2983 22.9217 32.3341C22.9456 32.3341 22.9696 32.3341 22.9936 32.3341C28.1819 32.3341 32.4236 28.1447 32.4596 22.9766C32.4955 17.7726 28.2778 13.5116 23.0655 13.4758ZM22.9936 29.6486C22.9936 29.6486 22.9576 29.6486 22.9456 29.6486C19.2192 29.6248 16.1996 26.5812 16.2356 22.8572C16.2595 19.1572 19.2911 16.1733 22.9936 16.1733C23.0056 16.1733 23.0295 16.1733 23.0415 16.1733C26.768 16.1971 29.7875 19.2407 29.7516 22.9647C29.7276 26.6647 26.6961 29.6486 22.9936 29.6486Z" fill="#203746"/>
<path id="Vector_3" d="M28.9019 6.40951C28.1949 6.15886 27.428 6.52887 27.1764 7.23307C26.9248 7.93728 27.2962 8.70116 28.0032 8.95181C33.9584 11.0525 37.9365 16.71 37.8886 23.0239C37.8886 23.764 38.4877 24.3727 39.2306 24.3846C39.9735 24.3846 40.5726 23.7878 40.5846 23.0478C40.6445 15.588 35.9475 8.90406 28.9019 6.42145V6.40951Z" fill="#203746"/>
<path id="Vector_4" d="M31.2984 50.7265C40.2971 39.1847 45.9168 33.1692 46.0007 23.0835C46.0965 10.384 35.7438 0 22.9947 0C10.2455 0 0.0965273 10.1692 0.000669022 22.7374C-0.0712247 33.1095 5.65631 39.1131 14.7149 50.7265C5.70424 52.0752 0.000669022 55.4411 0.000669022 59.5589C0.000669022 62.316 2.56488 64.7987 7.21401 66.5413C11.4557 68.1287 17.0515 69 22.9947 69C28.9379 69 34.5336 68.1287 38.7753 66.5413C43.4245 64.7987 45.9887 62.328 45.9887 59.5589C45.9887 55.4411 40.2971 52.0633 31.2864 50.7265H31.2984ZM2.70867 22.7613C2.79254 11.6611 11.8751 2.69746 22.9947 2.69746C34.1142 2.69746 43.3765 11.864 43.2927 23.0597C43.2208 32.644 37.2536 38.5522 27.7397 50.9175C26.0382 53.1256 24.4805 55.2024 23.0067 57.2434C21.5328 55.2024 20.0111 53.1614 18.2856 50.9175C8.36431 38.0389 2.63677 32.5724 2.70867 22.7613ZM23.0067 66.3025C11.3958 66.3025 2.70867 62.7457 2.70867 59.5589C2.70867 57.1956 7.897 54.2237 16.6201 53.1853C18.5492 55.7037 20.2388 57.9953 21.8923 60.3347C22.1439 60.6928 22.5513 60.9076 22.9947 60.9076C23.438 60.9076 23.8454 60.6928 24.097 60.3347C25.7386 58.0311 27.4761 55.6798 29.3932 53.1853C38.1043 54.2237 43.2927 57.1956 43.2927 59.5589C43.2927 62.7338 34.6175 66.3025 22.9947 66.3025H23.0067Z" fill="#203746"/>
</g>
<defs>
<clipPath id="clip0_201_1272">
<rect width="46" height="69" fill="white"/>
</clipPath>
</defs>
</svg>
