<svg width="26" height="26" viewBox="0 0 26 26" fill="none" xmlns="http://www.w3.org/2000/svg">
<g id="Icon 8" opacity="0.2">
<path id="Color" fill-rule="evenodd" clip-rule="evenodd" d="M4.77 12.5898C5.979 13.0048 6.94208 14.0166 7.34508 15.2993L7.38841 15.4293C7.84991 16.7899 7.6625 18.2546 6.889 19.3531C6.74816 19.5524 6.77958 19.7908 6.928 19.9034L9.17266 21.6086C9.25175 21.6682 9.32866 21.6682 9.37633 21.6628C9.4305 21.6541 9.50958 21.6248 9.5735 21.5338L9.82375 21.1785C10.5702 20.1201 11.7727 19.4669 13.0423 19.43C14.468 19.4008 15.7485 20.054 16.5458 21.2056L16.6737 21.3909C16.7376 21.4818 16.8156 21.5122 16.8708 21.5208C16.9185 21.5306 16.9965 21.5273 17.0745 21.4667L19.3072 19.7821C19.4632 19.6651 19.4979 19.4149 19.382 19.2469L19.1003 18.8407C18.3745 17.792 18.1589 16.4313 18.524 15.2018C18.9205 13.8628 19.9291 12.8033 21.2237 12.3699L21.4414 12.2963C21.6158 12.2388 21.7101 12.0222 21.6483 11.8228L20.7957 9.09177C20.7557 8.96393 20.6733 8.90652 20.6278 8.88268C20.5628 8.8491 20.4924 8.84368 20.4252 8.86643L20.0569 8.98885C18.797 9.4081 17.4071 9.1806 16.34 8.37785L16.223 8.2901C15.209 7.52743 14.6056 6.29785 14.6099 5.00218L14.6121 4.69885C14.6121 4.55477 14.5438 4.46485 14.5027 4.42368C14.4637 4.3836 14.3976 4.33593 14.3044 4.33593L11.5452 4.33268C11.3762 4.33268 11.2386 4.4941 11.2375 4.69343L11.2364 4.9556C11.231 6.27185 10.6146 7.52418 9.58758 8.30743L9.44783 8.4136C8.31791 9.27268 6.84458 9.51535 5.50991 9.06035C5.459 9.04302 5.41133 9.04627 5.36583 9.0701C5.33116 9.08743 5.26833 9.13185 5.238 9.23043L4.35291 12.0428C4.289 12.2475 4.39408 12.4609 4.59233 12.5292L4.77 12.5898ZM9.33191 23.8327C8.80541 23.8327 8.29408 23.6615 7.86291 23.3333L5.61825 21.6292C4.54575 20.8167 4.3085 19.2534 5.0885 18.1452C5.49366 17.571 5.57708 16.8333 5.33875 16.1334L5.27916 15.9514C5.08091 15.3209 4.62808 14.8313 4.068 14.6395H4.06691L3.89033 14.5778C2.57083 14.126 1.86666 12.7274 2.28591 11.3928L3.16991 8.58152C3.37033 7.9456 3.80258 7.4321 4.38758 7.13635C4.95958 6.84818 5.60633 6.80377 6.21083 7.01068C6.85975 7.23168 7.58016 7.11143 8.13591 6.68893L8.27566 6.58277C8.76966 6.20577 9.06758 5.59368 9.06975 4.94693L9.07083 4.68585C9.07625 3.29485 10.1867 2.16602 11.5441 2.16602H11.5484L14.3077 2.16927C14.9598 2.17035 15.5752 2.42818 16.0388 2.8951C16.5187 3.37718 16.7809 4.02177 16.7787 4.70968L16.7766 5.01193C16.7744 5.6251 17.055 6.20468 17.5284 6.56002L17.6443 6.64777C18.1416 7.02152 18.7894 7.12877 19.3712 6.93377L19.7384 6.81135C20.3635 6.60335 21.0287 6.65427 21.6147 6.95435C22.216 7.26202 22.6602 7.79177 22.8638 8.44718L23.7164 11.1783C24.1281 12.4978 23.4152 13.9213 22.1293 14.3513L21.9116 14.4239C21.2876 14.6341 20.7968 15.1541 20.6007 15.8171C20.4209 16.4248 20.5249 17.0933 20.8813 17.6068L21.163 18.013C21.9365 19.131 21.6895 20.6997 20.6127 21.5111L18.3799 23.1968C17.8437 23.6019 17.1861 23.7655 16.5263 23.6604C15.8612 23.5532 15.2805 23.1848 14.8916 22.6237L14.7637 22.4373C14.3846 21.8913 13.7779 21.5598 13.142 21.5956C12.505 21.6129 11.9547 21.9152 11.595 22.4265L11.3447 22.7818C10.9526 23.3376 10.3708 23.7005 9.70891 23.8045C9.58216 23.824 9.4565 23.8327 9.33191 23.8327ZM13.0003 11.3742C12.1044 11.3742 11.3753 12.1033 11.3753 12.9992C11.3753 13.8952 12.1044 14.6242 13.0003 14.6242C13.8962 14.6242 14.6253 13.8952 14.6253 12.9992C14.6253 12.1033 13.8962 11.3742 13.0003 11.3742ZM13.0003 16.7909C10.9095 16.7909 9.20863 15.0901 9.20863 12.9992C9.20863 10.9084 10.9095 9.20757 13.0003 9.20757C15.0911 9.20757 16.792 10.9084 16.792 12.9992C16.792 15.0901 15.0911 16.7909 13.0003 16.7909Z" fill="black"/>
</g>
</svg>
