<svg width="26" height="26" viewBox="0 0 26 26" fill="none" xmlns="http://www.w3.org/2000/svg">
<g id="Icon 1">
<path id="Color" fill-rule="evenodd" clip-rule="evenodd" d="M20.583 22.629C20.583 23.2934 20.0642 23.8327 19.4223 23.8327C18.7804 23.8327 18.2616 23.2934 18.2616 22.629C18.2616 19.3104 15.6581 16.6105 12.458 16.6105C9.25792 16.6105 6.65444 19.3104 6.65444 22.629C6.65444 23.2934 6.1356 23.8327 5.49372 23.8327C4.85185 23.8327 4.33301 23.2934 4.33301 22.629C4.33301 17.9827 7.97881 14.2031 12.458 14.2031C16.9372 14.2031 20.583 17.9827 20.583 22.629ZM12.458 4.57342C13.7383 4.57342 14.7794 5.65315 14.7794 6.98083C14.7794 8.30852 13.7383 9.38824 12.458 9.38824C11.1777 9.38824 10.1366 8.30852 10.1366 6.98083C10.1366 5.65315 11.1777 4.57342 12.458 4.57342ZM12.458 11.7956C15.0185 11.7956 17.1009 9.6362 17.1009 6.98083C17.1009 4.32546 15.0185 2.16602 12.458 2.16602C9.89747 2.16602 7.81515 4.32546 7.81515 6.98083C7.81515 9.6362 9.89747 11.7956 12.458 11.7956Z" fill="black"/>
</g>
</svg>
